<?xml version="1.0" encoding="UTF-8"?>
<!DOCTYPE svg PUBLIC "-//W3C//DTD SVG 1.1//EN" "http://www.w3.org/Graphics/SVG/1.1/DTD/svg11.dtd">
<!-- Creator: CorelDRAW X5 -->
<svg xmlns="http://www.w3.org/2000/svg" xml:space="preserve" width="419.1mm" height="450.02mm" style="shape-rendering:geometricPrecision; text-rendering:geometricPrecision; image-rendering:optimizeQuality; fill-rule:evenodd; clip-rule:evenodd"
viewBox="0 0 13033 13994"
 xmlns:xlink="http://www.w3.org/1999/xlink">
 <defs>
  <style type="text/css">
   <![CDATA[
    .fil0 {fill:#9EEBF6}
    .fil1 {fill:#B1F0FA}
    .fil4 {fill:#B3813E}
    .fil3 {fill:#D6FAFF}
    .fil2 {fill:#FFBF66}
   ]]>
  </style>
 </defs>
 <g id="Warstwa_x0020_1">
  <metadata id="CorelCorpID_0Corel-Layer"/>
  <rect class="fil0" width="13033" height="13994"/>
  <path class="fil1" d="M4229 1290c1679,53 1437,626 2203,756 1298,221 1882,-422 2623,765 241,218 467,1857 1334,1793 2145,-160 1193,1014 35,2674 -557,798 1268,340 1116,2074 -55,634 -800,2550 -2351,1783 -465,-230 -903,559 -1439,856 -1223,676 -2350,-254 -2771,-1787 -310,-1127 -256,-2195 -425,-2503 -282,-513 -790,-733 -1521,-905 -1841,-433 -3247,-3002 -987,-4083 796,-381 551,-1474 2183,-1422z"/>
  <path class="fil2" d="M2344 2968c-51,79 -82,146 -159,176 -74,29 -103,121 -124,200l-221 252c-8,57 -41,96 -86,125 -40,53 -65,118 -71,176l32 -29 -8 8 25 76c0,0 21,-6 26,5 39,104 -21,136 -40,171l37 59 -6 195 -59 165c-24,41 -40,63 -41,97 -2,78 -80,103 -119,161 36,53 76,105 82,167l-1 0 0 0 -27 68 0 0c-8,36 -15,71 -8,107l1 2 9 25c19,13 55,-13 53,49 17,9 39,-9 51,33 21,11 75,-90 56,60l47 52c0,1 -1,1 -1,1l0 0c-5,15 -4,22 16,22 8,9 35,-56 31,10l24 3c-8,37 17,82 41,90 31,11 48,46 65,62l42 77c7,4 14,7 21,8 -7,0 -14,-1 -21,-4l7 113c21,17 52,28 49,75 34,18 67,36 79,69l108 55 0 0 0 0 415 340 118 41 1 0 0 0 53 5 418 -118 150 17 0 0 159 58c126,-49 198,-126 379,-148 36,21 38,-15 51,-33l0 0 0 0 98 -28 2 1 0 0 126 -17 0 0c0,0 0,1 0,1l197 -1c60,20 117,50 153,140 46,163 136,174 249,104 47,17 95,22 142,21l9 -48 28 1 0 -1c0,38 33,35 56,43 10,35 26,66 69,71l35 -11 13 20 -20 24 52 68 -20 152 3 0 -67 128 42 27 0 0 -5 4 -19 87 60 31c4,8 -3,11 -7,15l-70 -15 -15 85 -54 52 59 151 247 256 -1 0 138 178 0 0 0 0c17,16 17,35 18,53 -5,20 8,36 18,53l0 0 -1 4 12 49 0 0c0,0 1,0 1,0 43,123 133,193 130,375l-29 28c24,82 46,168 100,207 5,23 -6,40 -8,57 -6,63 -39,242 -53,210 0,0 -60,13 -66,62 -3,24 -32,27 -43,56 -30,81 -62,210 -85,327 -3,14 -20,8 -23,21 -6,37 1,64 -2,103 -1,12 -16,-8 -19,7 -4,18 11,69 7,82l0 0c122,-32 163,-36 0,0l0 0c6,77 13,153 83,207l290 517 7 237 52 110c3,43 -13,86 13,128l36 202 158 176 1 -1 -1 1 0 0 221 444 3 102c-11,24 -29,25 -50,21 -8,12 -16,27 2,38 27,49 47,108 82,149 29,34 71,52 105,82l88 7c18,-13 2,-30 67,-36l128 -1c41,-16 -5,-56 127,-46 22,3 31,27 65,8 61,-10 120,14 180,23 18,-14 11,-38 111,-19l10 -39 117 2 692 -643c110,-46 134,-178 165,-305l0 0 24 -82 -36 13c5,-33 -2,-65 32,-98l286 -113c35,-26 57,-65 82,-102l-33 -12 59 -224 -30 -10 -25 -188c-81,-50 -34,-127 -1,-145l173 -147 14 29 64 -71 -14 -22 42 -8 12 -36 212 -104 53 1c40,-30 72,-63 131,-88l-4 -31 71 -55c17,-17 31,-43 54,-42l3 -35 -13 -15 39 -58 10 -39 -6 -25 -24 -36 8 -142c-18,-18 -8,-29 2,-41l-5 -156 57 -96c1,-26 4,-52 -6,-79l-22 13c7,-4 14,-9 20,-12 -18,-32 -50,-49 -80,-69 2,-36 -12,-76 -25,-116 -15,-24 -27,-47 -17,-65l-36 -78 22 -7c-6,-60 -5,-116 30,-153 -24,-51 -108,-91 -103,-151l71 -200c68,-83 109,-195 163,-293 49,-12 68,-48 83,-87 40,-1 60,-27 78,-55l-1 -1 185 -207 310 -293 36 -4 130 -123 5 -25c71,-54 160,-145 182,-190 39,-79 90,-147 146,-211l122 -353c24,-23 42,-54 57,-88 6,-37 28,-50 45,-71l14 -177c40,6 20,-73 23,-121 -15,-14 -32,-36 0,-54l0 -44c-29,2 -58,-30 -86,-8 -35,33 -83,57 -136,62 -60,5 -109,40 -134,31 -41,34 -92,45 -159,26 -45,40 -74,92 -218,55l-92 66c-141,38 -178,-76 -249,-140l0 0 -1 2c-29,-24 -58,-11 -86,-13 8,-36 48,-44 76,-62 21,-65 -24,-106 -51,-118l0 0 0 0c-11,-29 -28,-55 -80,-56 -3,-25 -13,-46 -47,-59 -7,-29 -33,-29 -53,-37 -17,-47 -58,-72 -91,-105 -38,9 -55,-16 -73,-41l-29 -6 -21 13c-22,-18 -27,-42 -33,-67l-31 -8 8 43c-19,11 -29,-19 -39,-53l-63 -91c-41,-191 -77,-215 -114,-267 -1,2 -1,4 -2,5 0,-2 1,-4 1,-6 -12,-28 -30,-23 -47,-26 -27,-52 -72,-57 -111,-77l-55 -330 -43 -46c11,-118 -128,-139 -196,-210 -56,57 -63,64 -2,1l-24 -117 38 1 -92 -82 -254 -419 -1 -51c-60,-39 -104,-89 -131,-151l-2 -39 -38 -28 10 -62 114 152c10,12 -1,20 8,33 30,41 81,83 111,107 15,-5 33,-2 41,-33l30 -197 -133 -272c-90,63 -180,88 -270,-6l-110 8c-25,11 -52,27 -66,1l-177 104 -294 -65c-44,-9 -91,-24 -128,-18 -36,22 -62,7 -87,-10 1,-1 1,-1 1,-1 -1,-53 -102,-49 -156,-52 -70,-4 -117,-13 -105,-66 0,0 -184,-66 -255,-22 -38,23 -117,60 -132,107 -10,32 -1,53 18,86 33,57 -79,251 -207,95 0,0 -168,-46 -263,-67 -93,-20 -157,-102 -119,-151 4,-5 -252,-79 -252,-79 -118,18 -204,-16 -226,-39 0,-2 -1,-3 -1,-5 -4,-14 -39,3 -45,-23 -13,-58 -11,-72 -33,-80 -11,-4 -56,39 -66,34 -21,-12 -46,-41 -35,-56 19,-25 158,-111 159,-158 2,-70 -24,-77 -58,-96 -20,-11 -13,-44 -6,-63 4,-12 79,-37 70,-64 -6,-18 -17,-21 -21,-35 -3,-11 -59,48 -63,39 -9,-24 -12,-39 -24,-56l0 0c-25,1 -122,-50 -177,30 0,0 -1,0 -2,1 -68,18 -138,-37 -158,-24 -54,36 -65,-6 -105,-9 -39,-3 -127,43 -194,24 -67,-20 -274,41 -433,40 -87,0 -148,48 -152,70 -4,21 -66,14 -99,4 -28,-9 -49,36 -66,59 -32,43 -84,35 -97,39 0,-1 -1,-3 -1,-4 -34,-6 -76,-7 -91,-28 -50,-9 -99,-13 -143,-9 -81,8 -115,-21 -148,-98 -78,-5 -161,163 -222,246 -146,41 -252,106 -324,193 10,35 -7,49 -43,72 -23,15 -104,144 -76,216 0,56 -43,150 -169,212 0,0 -59,55 -151,85 -39,13 -130,23 -157,48l4 0zm3923 6770c33,0 60,10 60,22 0,12 -27,22 -60,22 -33,0 -60,-10 -60,-22 0,-12 27,-22 60,-22zm1324 -4918c97,0 175,-19 175,-43 0,-24 -78,-43 -175,-43 -97,0 -175,19 -175,43 0,24 78,43 175,43zm-206 -344c53,0 96,16 96,36 0,20 -43,36 -96,36 -53,0 -96,-16 -96,-36 0,-20 43,-36 96,-36zm554 36c33,0 60,10 60,22 0,12 -27,22 -60,22 -33,0 -60,-10 -60,-22 0,-12 27,-22 60,-22zm-429 -1505c51,0 92,-16 92,-36 0,-20 -41,-36 -92,-36 -51,0 -92,16 -92,36 0,20 41,36 92,36zm-2939 -244c57,0 103,-18 103,-41 0,-22 -46,-41 -103,-41 -57,0 -103,18 -103,41 0,22 46,41 103,41zm2738 19c32,0 58,10 58,21 0,12 -26,21 -58,21 -32,0 -58,-10 -58,-21 0,-12 26,-21 58,-21zm-2963 -271c36,0 64,11 64,24 0,13 -29,24 -64,24 -36,0 -64,-11 -64,-24 0,-13 29,-24 64,-24zm3335 362c25,0 45,9 45,21 0,12 -20,21 -45,21 -25,0 -45,-9 -45,-21 0,-12 20,-21 45,-21zm-2918 -260c28,0 51,11 51,24 0,13 -23,24 -51,24 -28,0 -51,-11 -51,-24 0,-13 23,-24 51,-24zm4798 3386c-64,0 -116,-19 -116,-43 0,-24 52,-43 116,-43 64,0 116,19 116,43 0,24 -52,43 -116,43zm-307 268c-33,0 -60,-12 -60,-28 0,-15 27,-28 60,-28 33,0 60,12 60,28 0,15 -27,28 -60,28zm-5556 -262c58,3 104,20 103,37 -1,17 -49,28 -107,25 -58,-3 -104,-20 -103,-37 1,-17 49,-28 107,-25zm6121 160c-58,0 -105,-14 -105,-31 0,-17 47,-31 105,-31 58,0 105,14 105,31 0,17 -47,31 -105,31zm-7456 -1736c64,0 116,19 116,43 0,24 -52,43 -116,43 -64,0 -116,-19 -116,-43 0,-24 52,-43 116,-43zm2865 448c77,0 140,-15 140,-35 0,-19 -63,-35 -140,-35 -77,0 -140,15 -140,35 0,19 63,35 140,35zm-349 11c33,0 60,14 60,31 0,17 -27,31 -60,31 -33,0 -60,-14 -60,-31 0,-17 27,-31 60,-31zm461 87c33,0 60,15 60,32 0,18 -27,32 -60,32 -33,0 -60,-15 -60,-32 0,-18 27,-32 60,-32zm-2670 -814c33,0 60,10 60,22 0,12 -27,22 -60,22 -33,0 -60,-10 -60,-22 0,-12 27,-22 60,-22zm4187 3306c33,0 60,10 60,22 0,12 -27,22 -60,22 -33,0 -60,-10 -60,-22 0,-12 27,-22 60,-22zm-4751 -3205c58,0 105,14 105,31 0,17 -47,31 -105,31 -58,0 -105,-14 -105,-31 0,-17 47,-31 105,-31zm4187 3306c58,0 105,14 105,31 0,17 -47,31 -105,31 -58,0 -105,-14 -105,-31 0,-17 47,-31 105,-31zm3710 2075c64,4 114,26 113,50 -1,24 -54,40 -118,36 -64,-4 -114,-26 -113,-50 1,-24 54,-40 118,-36zm-4289 -186c64,4 114,26 113,50 -1,24 -54,40 -118,36 -64,-4 -114,-26 -113,-50 1,-24 54,-40 118,-36zm2204 -186c64,4 114,26 113,50 -1,24 -54,40 -118,36 -64,-4 -114,-26 -113,-50 1,-24 54,-40 118,-36zm2408 124c33,2 59,16 58,31 -1,15 -28,26 -61,24 -33,-2 -59,-16 -58,-31 1,-15 28,-26 61,-24zm-2086 -373c33,2 59,16 58,31 -1,15 -28,26 -61,24 -33,-2 -59,-16 -58,-31 1,-15 28,-26 61,-24zm-569 68c58,3 104,20 103,37 -1,17 -49,28 -107,25 -58,-3 -104,-20 -103,-37 1,-17 49,-28 107,-25zm-1119 -1354c64,0 116,19 116,43 0,24 -52,43 -116,43 -64,0 -116,-19 -116,-43 0,-24 52,-43 116,-43zm502 3406c-77,0 -140,15 -140,35 0,19 63,35 140,35 77,0 140,-15 140,-35 0,-19 -63,-35 -140,-35zm1272 -883c-33,0 -60,-10 -60,-22 0,-12 27,-22 60,-22 33,0 60,10 60,22 0,12 -27,22 -60,22zm-922 872c-33,0 -60,-10 -60,-22 0,-12 27,-22 60,-22 33,0 60,10 60,22 0,12 -27,22 -60,22zm-461 -108c-33,0 -60,-10 -60,-22 0,-12 27,-22 60,-22 33,0 60,10 60,22 0,12 -27,22 -60,22zm2361 -3409l0 0zm772 2974l395 -840c30,-95 48,-190 93,-284 30,-40 69,-77 44,-136l9 -82c4,-25 18,-24 39,-4l12 49c15,-5 29,-10 28,-34l-40 -436 -75 -82 -44 36 -11 112 -25 22c-13,-4 -33,-24 -27,21l-37 41c-43,-79 -49,-9 -37,25 -1,15 3,40 -17,17l-30 49 43 32 -26 0 -56 40 9 -49 -56 56 13 69 -38 2 7 -31c-35,-23 -63,26 -94,42l34 56 -43 4 -17 -51 -69 11c2,24 -26,31 -51,40l-4 -34 -39 39 -67 3 -13 58 -91 132c70,61 41,199 60,300 -26,82 -75,144 -120,210 -52,34 -76,69 -83,103 -8,33 -24,98 -14,131 11,39 33,25 34,64l13 63c-64,245 95,241 129,301 16,-7 35,5 50,-3 34,-18 77,-63 122,-48 38,13 66,-2 93,-14z"/>
  <path class="fil3" d="M9781 8289c-283,269 -3,607 308,237 131,-156 41,-325 -64,-467 -126,-171 -232,-285 -342,-194 -45,37 -63,148 62,207 40,19 121,137 36,217z"/>
  <path class="fil3" d="M9379 10085c247,-302 -13,-613 -238,-185 -589,1123 528,1167 273,712 -51,-91 -198,-328 -36,-526z"/>
  <path class="fil3" d="M3812 6661c-358,156 -323,-209 158,-260 787,-83 964,413 785,585 -293,282 -706,-428 -942,-325z"/>
  <path class="fil1" d="M1790 2149c-382,954 -402,-1608 1721,-1766 821,-61 1942,296 2111,414 43,30 151,221 -256,253 -919,72 -2724,-1027 -3576,1098z"/>
  <path class="fil4" d="M6267 9738c33,0 60,10 60,22 0,12 -27,22 -60,22 -33,0 -60,-10 -60,-22 0,-12 27,-22 60,-22zm1324 -4918c97,0 175,-19 175,-43 0,-24 -78,-43 -175,-43 -97,0 -175,19 -175,43 0,24 78,43 175,43zm-206 -344c53,0 96,16 96,36 0,20 -43,36 -96,36 -53,0 -96,-16 -96,-36 0,-20 43,-36 96,-36zm554 36c33,0 60,10 60,22 0,12 -27,22 -60,22 -33,0 -60,-10 -60,-22 0,-12 27,-22 60,-22zm-429 -1505c51,0 92,-16 92,-36 0,-20 -41,-36 -92,-36 -51,0 -92,16 -92,36 0,20 41,36 92,36zm-2939 -244c57,0 103,-18 103,-41 0,-22 -46,-41 -103,-41 -57,0 -103,18 -103,41 0,22 46,41 103,41zm2738 19c32,0 58,10 58,21 0,12 -26,21 -58,21 -32,0 -58,-10 -58,-21 0,-12 26,-21 58,-21zm-2963 -271c36,0 64,11 64,24 0,13 -29,24 -64,24 -36,0 -64,-11 -64,-24 0,-13 29,-24 64,-24zm3335 362c25,0 45,9 45,21 0,12 -20,21 -45,21 -25,0 -45,-9 -45,-21 0,-12 20,-21 45,-21zm-2918 -260c28,0 51,11 51,24 0,13 -23,24 -51,24 -28,0 -51,-11 -51,-24 0,-13 23,-24 51,-24zm4798 3386c-64,0 -116,-19 -116,-43 0,-24 52,-43 116,-43 64,0 116,19 116,43 0,24 -52,43 -116,43zm-307 268c-33,0 -60,-12 -60,-28 0,-15 27,-28 60,-28 33,0 60,12 60,28 0,15 -27,28 -60,28zm-5556 -262c58,3 104,20 103,37 -1,17 -49,28 -107,25 -58,-3 -104,-20 -103,-37 1,-17 49,-28 107,-25zm6121 160c-58,0 -105,-14 -105,-31 0,-17 47,-31 105,-31 58,0 105,14 105,31 0,17 -47,31 -105,31zm-7456 -1736c64,0 116,19 116,43 0,24 -52,43 -116,43 -64,0 -116,-19 -116,-43 0,-24 52,-43 116,-43zm2865 448c77,0 140,-15 140,-35 0,-19 -63,-35 -140,-35 -77,0 -140,15 -140,35 0,19 63,35 140,35zm-349 11c33,0 60,14 60,31 0,17 -27,31 -60,31 -33,0 -60,-14 -60,-31 0,-17 27,-31 60,-31zm461 87c33,0 60,15 60,32 0,18 -27,32 -60,32 -33,0 -60,-15 -60,-32 0,-18 27,-32 60,-32zm-2670 -814c33,0 60,10 60,22 0,12 -27,22 -60,22 -33,0 -60,-10 -60,-22 0,-12 27,-22 60,-22zm4187 3306c33,0 60,10 60,22 0,12 -27,22 -60,22 -33,0 -60,-10 -60,-22 0,-12 27,-22 60,-22zm-4751 -3205c58,0 105,14 105,31 0,17 -47,31 -105,31 -58,0 -105,-14 -105,-31 0,-17 47,-31 105,-31zm4187 3306c58,0 105,14 105,31 0,17 -47,31 -105,31 -58,0 -105,-14 -105,-31 0,-17 47,-31 105,-31zm3710 2075c64,4 114,26 113,50 -1,24 -54,40 -118,36 -64,-4 -114,-26 -113,-50 1,-24 54,-40 118,-36zm-4289 -186c64,4 114,26 113,50 -1,24 -54,40 -118,36 -64,-4 -114,-26 -113,-50 1,-24 54,-40 118,-36zm2204 -186c64,4 114,26 113,50 -1,24 -54,40 -118,36 -64,-4 -114,-26 -113,-50 1,-24 54,-40 118,-36zm2408 124c33,2 59,16 58,31 -1,15 -28,26 -61,24 -33,-2 -59,-16 -58,-31 1,-15 28,-26 61,-24zm-2086 -373c33,2 59,16 58,31 -1,15 -28,26 -61,24 -33,-2 -59,-16 -58,-31 1,-15 28,-26 61,-24zm-569 68c58,3 104,20 103,37 -1,17 -49,28 -107,25 -58,-3 -104,-20 -103,-37 1,-17 49,-28 107,-25zm-1119 -1354c64,0 116,19 116,43 0,24 -52,43 -116,43 -64,0 -116,-19 -116,-43 0,-24 52,-43 116,-43zm502 3406c-77,0 -140,15 -140,35 0,19 63,35 140,35 77,0 140,-15 140,-35 0,-19 -63,-35 -140,-35zm1272 -883c-33,0 -60,-10 -60,-22 0,-12 27,-22 60,-22 33,0 60,10 60,22 0,12 -27,22 -60,22zm-922 872c-33,0 -60,-10 -60,-22 0,-12 27,-22 60,-22 33,0 60,10 60,22 0,12 -27,22 -60,22zm-461 -108c-33,0 -60,-10 -60,-22 0,-12 27,-22 60,-22 33,0 60,10 60,22 0,12 -27,22 -60,22z"/>
  <path class="fil3" d="M9901 4784c-68,-57 -143,-191 -197,-202 -302,-62 175,532 562,585 300,42 524,-220 356,-333 -224,-151 -501,135 -721,-50z"/>
  <path class="fil1" d="M12139 9805c-213,52 -328,1182 -646,1497 -748,740 -2669,357 -3428,853 -376,246 -1212,1416 22,1633 332,58 276,-631 755,-1053 590,-519 2388,-445 2893,-984 713,-762 562,-1986 404,-1947z"/>
 </g>
</svg>
