<?xml version="1.0" encoding="UTF-8"?>
<!DOCTYPE svg PUBLIC "-//W3C//DTD SVG 1.1//EN" "http://www.w3.org/Graphics/SVG/1.1/DTD/svg11.dtd">
<!-- Creator: CorelDRAW X5 -->
<svg xmlns="http://www.w3.org/2000/svg" xml:space="preserve" width="138.261mm" height="181.274mm" style="shape-rendering:geometricPrecision; text-rendering:geometricPrecision; image-rendering:optimizeQuality; fill-rule:evenodd; clip-rule:evenodd"
viewBox="0 0 1906 2499"
 xmlns:xlink="http://www.w3.org/1999/xlink">
 <defs>
  <style type="text/css">
   <![CDATA[
    .fil4 {fill:#9B2327}
    .fil3 {fill:#AE3224}
    .fil2 {fill:#C3462A}
    .fil1 {fill:#CC5926}
    .fil0 {fill:#DA7425}
   ]]>
  </style>
 </defs>
 <g id="Warstwa_x0020_1">
  <metadata id="CorelCorpID_0Corel-Layer"/>
  <g id="_777024352">
   <path class="fil0" d="M942 272c33,-15 145,-36 192,-48 97,-24 116,-16 127,-55 5,-16 9,-29 17,-46 6,5 15,-9 5,38 -38,175 -3,58 -3,139l-8 154c-10,49 -10,141 -13,196l-243 -3 14 79 -420 1c7,53 74,290 67,313 13,10 3,-3 10,15 2,6 4,17 6,24 5,20 4,25 21,30 76,4 194,-21 259,-23 31,-1 58,3 92,3 129,-1 252,8 379,5l-1 -34c2,-53 -22,-134 -10,-178 33,-14 234,-38 251,-52 9,-42 8,-139 9,-184 1,-65 4,-130 4,-195 0,-65 7,-349 12,-356 -9,-10 -20,-9 -52,-10 -69,-3 -111,1 -156,-27 -70,-44 -90,-47 -184,-58 -9,27 -7,51 -19,59 -33,9 -333,-18 -394,-20 2,52 44,200 38,233z"/>
   <path class="fil1" d="M934 2051c9,31 -69,165 -75,217 9,-7 -2,-10 40,-4 22,3 77,15 100,23l328 104c31,11 62,20 92,29 115,33 94,35 205,37 -12,7 -153,-44 -181,-52l-383 -109c-20,-6 -159,-39 -170,-45 -16,-9 -12,-12 -14,-25 36,-15 145,-9 197,-9 77,-1 583,-12 591,-19 11,-14 -32,-167 -37,-207 15,-16 13,-7 28,-21 7,-7 14,-16 23,-25l76 -70c15,-12 6,-10 18,-21 12,-11 14,-6 28,-21 14,-14 10,-20 25,-18 -12,-13 2,-5 -22,-12 -6,-2 -18,-3 -25,-5 -16,-3 -33,-7 -50,-9 -33,17 -62,62 -100,55 -43,-8 -88,-19 -132,-28 -87,-19 -176,-41 -263,-58 -41,-8 -160,-53 -187,13l-67 171c-8,21 -34,102 -49,109z"/>
   <path class="fil2" d="M147 1098c29,16 211,103 233,106 20,-3 3,7 13,-14 0,-1 0,-2 1,-3l321 89 -2 -13c35,-2 65,-14 100,-17 -16,-44 -40,-52 -56,-86 27,12 93,64 120,85 31,23 42,9 59,39 11,19 16,43 29,68 44,78 73,179 146,302 31,51 28,62 73,72l313 81c28,7 53,15 79,20 30,5 34,15 74,15 -19,-71 -31,-163 -47,-242 -8,-41 -37,-213 -50,-239l-569 -60 296 10c-7,-4 -59,-23 -72,-27l-213 -73c-47,-16 -92,-34 -140,-50 -42,-14 -102,-29 -140,-49 -17,-6 -17,-11 -21,-30 -1,-6 -3,-18 -6,-24 -7,-17 2,-5 -10,-15 -9,-6 -9,-7 -17,-14 -10,8 -8,-14 -5,22 2,34 25,141 24,177 -42,-8 -215,-54 -268,-68 -46,-12 -89,-21 -136,-35 -19,-5 -43,-11 -65,-17l-50 -12c-15,0 -4,-3 -12,4z"/>
   <path class="fil3" d="M859 2267l-56 231 968 1c-29,-6 -102,-20 -122,-40 19,-6 45,-5 69,-6 4,-60 -54,-218 -43,-261 7,-14 7,0 28,-16 20,-15 -10,7 10,-9 13,-11 20,-12 36,-19 1,0 2,-1 3,-2l45 -27c1,-1 2,-1 3,-2 1,-1 5,-3 7,-3 19,-10 18,-9 28,-23l24 5c2,-15 -27,-274 -34,-282 -15,-2 -11,4 -25,18 -15,15 -16,9 -28,21 -12,11 -3,8 -18,21l-76 70c-9,9 -16,19 -23,25 -15,14 -13,4 -28,21 4,40 47,193 37,207 -8,7 -514,19 -591,19 -52,0 -161,-6 -197,9 2,13 -1,17 14,25 11,6 150,39 170,45l383 109c28,9 169,59 181,52 -111,-1 -90,-4 -205,-37 -30,-9 -62,-18 -92,-29l-328 -104c-22,-8 -77,-20 -100,-23 -42,-6 -31,-3 -40,4z"/>
   <path class="fil1" d="M379 1204c24,24 18,16 30,54 39,119 120,343 144,435l455 2c31,-10 51,-7 86,-7 -3,-23 -21,-38 -34,-59l-120 -181c-28,-40 -50,-80 -79,-120 -17,-24 -115,-47 -147,-51l-321 -89c-1,1 -1,3 -1,3 -10,21 7,12 -13,14z"/>
   <path class="fil0" d="M147 1098c8,-7 -3,-4 12,-4l50 12c22,6 46,11 65,17 47,13 90,23 136,35 52,14 226,61 268,68 1,-36 -22,-143 -24,-177 -2,-36 -4,-14 5,-22 -14,-36 -27,-31 -66,-45l-167 -62c-26,-9 -49,-22 -83,-34 -42,-16 -322,-117 -343,-119l66 173c10,29 20,57 30,87 15,44 11,56 51,72z"/>
   <path class="fil4" d="M1683 830c-18,14 -218,38 -251,52 -12,44 13,125 10,178 8,30 27,227 24,255l-187 -7 -296 -10 569 60c13,26 41,198 50,239 16,80 28,171 47,242 -40,-1 -44,-10 -74,-15 -26,-5 -51,-12 -79,-20l-313 -81c-45,-11 -42,-21 -73,-72 -73,-123 -102,-224 -146,-302 -14,-24 -18,-48 -29,-68 -17,-30 -28,-16 -59,-39 -27,-21 -93,-73 -120,-85 16,34 40,41 56,86 -35,3 -65,15 -100,17l2 13c33,4 130,27 147,51 29,41 51,80 79,120l120 181c14,22 31,36 34,59 -34,0 -55,-2 -86,7l-96 50c6,6 12,8 26,10 32,5 72,7 102,16 -1,26 -48,110 -64,141 -14,28 -60,111 -64,136l21 4c14,-7 41,-87 49,-109l67 -171c27,-67 146,-21 187,-13 87,17 175,39 263,58 44,9 89,21 132,28 37,7 67,-38 100,-55l-137 -411 -10 -29 -91 -31c-6,-40 -18,-310 -15,-354 14,-1 108,-10 118,-14l12 -8c10,-7 -9,-2 12,-6 30,-4 206,-96 252,-118 -11,-14 5,-2 -11,-6 -8,-2 -22,1 -33,2 -33,3 -125,12 -144,17z"/>
   <path class="fil1" d="M1683 830c19,-5 111,-14 144,-17 11,-1 25,-5 33,-2 16,4 0,-8 11,6 28,-12 15,-39 13,-98 -1,-39 -2,-73 -3,-112 -1,-33 -7,-302 -19,-321 -13,-20 -140,-184 -153,-191 -6,8 -12,291 -12,356 0,65 -3,130 -4,195 -1,45 0,142 -9,184z"/>
   <path class="fil1" d="M713 1109c38,20 99,35 140,49 48,16 93,34 140,50l213 73c13,4 65,24 72,27l187 7c3,-29 -16,-225 -24,-255l1 34c-127,3 -250,-6 -379,-5 -34,0 -62,-4 -92,-3 -64,2 -183,27 -259,23z"/>
   <path class="fil4" d="M1772 2499l135 -1 -45 -402 -24 -5c-10,15 -10,13 -28,23 -1,1 -5,3 -7,3 -1,1 -2,1 -3,2l-45 27c-1,0 -2,1 -3,2 -15,7 -23,8 -36,19 -20,16 10,-6 -10,9 -21,16 -21,2 -28,16 -11,42 47,201 43,261 -25,1 -50,-1 -69,6 20,20 93,34 122,40z"/>
   <path class="fil0" d="M941 286l-38 8 58 220 30 2c18,-14 171,-42 203,-45 3,-23 8,-19 12,-48 25,-205 52,-128 -11,-203 -57,13 -214,65 -254,67z"/>
   <path class="fil2" d="M942 272l-1 14c40,-2 198,-54 254,-67 63,75 36,-2 11,203 -3,28 -8,24 -12,48 -31,3 -185,31 -203,45 -2,28 18,98 23,132l243 3c3,-55 4,-147 13,-196l8 -154c1,-81 -35,36 3,-139 10,-47 1,-33 -5,-38 -8,16 -12,30 -17,46 -11,39 -30,31 -127,55 -47,12 -159,33 -192,48z"/>
   <path class="fil2" d="M1594 1378l-2 -17c1,-1 3,-3 4,-2l17 -8 40 -408c-28,1 -24,1 -33,-8 -22,4 -2,0 -12,6l-12 8c-9,4 -103,13 -118,14 -3,44 9,314 15,354l91 31 10 29z"/>
   <path class="fil2" d="M913 2047c5,-25 50,-107 64,-136 15,-31 63,-116 64,-141 -30,-9 -70,-11 -102,-16 -14,-2 -20,-4 -26,-10 -11,8 -6,-4 -9,16l1 272c4,15 -4,6 9,15z"/>
  </g>
 </g>
</svg>
