<?xml version="1.0" encoding="UTF-8"?>
<!DOCTYPE svg PUBLIC "-//W3C//DTD SVG 1.1//EN" "http://www.w3.org/Graphics/SVG/1.1/DTD/svg11.dtd">
<!-- Creator: CorelDRAW X5 -->
<svg xmlns="http://www.w3.org/2000/svg" xml:space="preserve" width="89.4252mm" height="247.479mm" style="shape-rendering:geometricPrecision; text-rendering:geometricPrecision; image-rendering:optimizeQuality; fill-rule:evenodd; clip-rule:evenodd"
viewBox="0 0 325 900"
 xmlns:xlink="http://www.w3.org/1999/xlink">
 <defs>
  <style type="text/css">
   <![CDATA[
    .fil42 {fill:#2F0B18}
    .fil23 {fill:#3B162A}
    .fil19 {fill:#431A2C}
    .fil17 {fill:#451728}
    .fil45 {fill:#510D27}
    .fil48 {fill:#57173A}
    .fil38 {fill:#61012D}
    .fil21 {fill:#782628}
    .fil46 {fill:#853535}
    .fil34 {fill:#862727}
    .fil11 {fill:#87332D}
    .fil13 {fill:#993A36}
    .fil41 {fill:#A63C35}
    .fil28 {fill:#A83827}
    .fil30 {fill:#AA2E1D}
    .fil44 {fill:#AA4437}
    .fil47 {fill:#AE95A8}
    .fil36 {fill:#B7AD30}
    .fil29 {fill:#B84629}
    .fil3 {fill:#BD4A2D}
    .fil27 {fill:#C64A2A}
    .fil40 {fill:#C75948}
    .fil20 {fill:#C8542B}
    .fil16 {fill:#C85538}
    .fil39 {fill:#D34B32}
    .fil35 {fill:#D46C37}
    .fil5 {fill:#D65729}
    .fil12 {fill:#D65939}
    .fil14 {fill:#D8754B}
    .fil6 {fill:#D96637}
    .fil25 {fill:#DA642B}
    .fil33 {fill:#DAD1F3}
    .fil7 {fill:#DC6535}
    .fil9 {fill:#E36A36}
    .fil15 {fill:#E67947}
    .fil1 {fill:#E87639}
    .fil37 {fill:#EB8357}
    .fil22 {fill:#EB8647}
    .fil4 {fill:#EC7D55}
    .fil24 {fill:#F38A48}
    .fil31 {fill:#F7883A}
    .fil32 {fill:#F8B271}
    .fil2 {fill:#FB9C65}
    .fil10 {fill:#FD9C56}
    .fil26 {fill:#FDA567}
    .fil18 {fill:#FDB757}
    .fil0 {fill:#FE9B4C}
    .fil43 {fill:#FEFEFA}
    .fil8 {fill:white}
   ]]>
  </style>
 </defs>
 <g id="Warstwa_x0020_1">
  <metadata id="CorelCorpID_0Corel-Layer"/>
  <g id="_378177024">
   <path class="fil0" d="M260 670c5,4 4,8 3,16 -17,14 -19,-16 -3,-16zm-82 -22c6,-1 7,0 12,2 1,9 0,13 -9,12 -3,-4 -4,-9 -3,-14zm-44 -16c-14,1 -15,-1 -19,-12 -5,-11 -3,-17 9,-18 9,-1 23,-3 20,9 0,2 -9,20 -10,22zm-17 -69c4,-3 21,-8 26,-4 3,3 4,22 4,28 -2,4 -38,28 -30,-25zm-18 -14c-6,-1 -5,-1 -8,4 -1,1 -2,3 -2,3 0,4 -4,1 2,3l14 0c4,10 5,29 2,40 0,0 -1,0 -1,1 0,1 -1,1 -1,1 0,0 -1,1 -2,2 8,0 1,43 1,46l-2 -1c0,0 -1,-1 -2,-1 0,5 0,4 2,7 0,7 1,6 -4,8 -2,1 -9,2 -11,2l0 4 -1 1c3,2 2,1 4,5 1,2 2,5 3,7 2,6 5,9 3,15 3,2 1,-2 3,4 0,0 1,5 1,5 1,5 1,9 0,15 2,-3 2,-7 2,-10 5,0 9,-3 10,-7 2,-7 -3,-10 4,-15 4,-2 3,-4 5,-9 1,-4 2,-9 4,-12 0,-10 12,-21 17,-24 0,0 1,-1 1,-1 0,0 1,0 1,-1 2,-1 1,0 3,-1l4 -3c-3,-4 -7,-6 -6,-14 2,-23 25,-18 40,-15l4 4c1,-6 5,-5 9,-2 4,3 6,3 13,2l3 -8c-7,1 -10,3 -17,3 0,-7 0,-8 7,-9 6,-1 9,-1 9,5 11,-1 8,4 20,10 0,8 -2,10 -3,16l-1 -3c-2,3 -3,7 -4,11 -5,19 -12,16 -24,14 -2,1 -6,1 -8,0 -5,-2 -3,-2 -6,-7 -6,0 -7,2 -12,0 -1,-1 0,-3 0,-4 -1,2 -3,4 -4,5 -8,0 -4,0 -6,2 5,9 5,13 15,18 8,4 20,4 28,0 8,-3 15,-9 19,-14 5,-5 12,-17 15,-18 0,6 -1,9 1,14l1 1c-4,4 -1,3 -9,11 -4,4 -4,10 -4,16l12 1c3,8 3,19 4,29 5,-1 7,-1 9,-6 2,-5 -1,-2 3,-6 4,-4 3,-2 6,-4l0 0c3,-7 5,-17 6,-27 -8,2 -14,5 -23,0 -1,-7 2,-17 4,-22 4,-7 10,-7 20,-6 -1,-4 -1,-5 -2,-8 -1,-5 -2,-2 0,-7 -6,1 -2,1 -6,-3 -2,-2 -3,-4 -5,-6 -1,1 3,13 -15,8 0,-5 0,-13 4,-16 -3,-4 -1,-2 -6,-4 -1,7 -4,7 -10,11 -1,-1 -1,-1 -2,-2l-1 -2c-4,-5 -3,-4 -13,-5 0,-5 2,-13 4,-15 3,-2 -1,-2 3,0 -4,-6 -13,-16 -18,-18 1,15 -5,20 -13,27 -8,7 -18,8 -31,3 -16,-5 -15,-10 -13,-26 1,-13 4,-21 13,-26 -6,-4 -15,-7 -22,-10 0,8 -11,14 -18,17 -11,5 -17,1 -25,-4z"/>
   <path class="fil1" d="M248 706c-3,12 -18,7 -27,4 2,19 3,23 14,27l2 1c0,0 2,1 2,1 2,-5 -1,-1 4,-3l18 -1c13,0 27,10 33,17 7,9 0,57 -2,68 -2,7 -6,12 -7,18 -2,11 5,6 4,21l12 0c-1,-8 -2,-8 2,-12 12,-12 -1,-12 -2,-28 -1,-13 3,-36 5,-48 5,-26 14,-27 -1,-37 -21,-14 -25,-21 -30,-24 -1,5 -11,3 -15,2 -5,-12 -2,-8 6,-20 -4,1 -3,0 -6,4 -4,4 -1,1 -3,6 -2,5 -4,5 -9,6z"/>
   <path class="fil2" d="M104 136l0 2c1,9 -2,19 -2,28 0,4 0,3 1,5 4,-12 18,-19 26,-7 4,6 4,32 0,39 -5,6 -17,7 -26,5 -4,-9 -2,-18 -4,-24 -1,-3 0,-1 -1,-3 0,11 -5,31 -8,42 -4,12 -13,24 -15,35 3,4 8,2 10,9 1,4 1,14 0,19 -1,18 -1,18 -12,27 5,0 5,0 8,-2l-1 6c0,0 -1,2 -1,2 5,-2 1,-2 4,0l-1 -11c2,1 2,7 4,10 2,-4 6,-18 8,-24 4,-9 7,-16 10,-23 -4,-1 -3,-2 -7,-14 -4,-13 -2,-18 8,-29 5,-5 7,-6 16,-6l3 10c4,-3 13,-20 15,-26 2,-11 5,-25 6,-36 0,0 -2,1 -2,3 -10,-7 -19,-12 -24,-25 -4,-10 2,-35 1,-41 -3,-11 6,2 -2,-3 -2,5 -5,11 -8,16 -2,5 -4,13 -7,16z"/>
   <path class="fil3" d="M1 480l-1 15c3,1 30,16 32,18 0,8 -9,11 -17,12 5,7 8,10 14,16 5,5 10,9 14,15l-5 15c6,-2 9,-1 14,1 1,7 -2,21 -4,28 -2,9 -9,14 -19,12l-1 -6c-5,7 7,19 10,22 4,-4 -2,-2 2,0 3,1 1,1 3,2 3,3 2,3 4,3 1,0 1,0 3,0 0,0 1,0 1,0 0,0 1,0 1,0 5,2 3,4 10,4l-1 -6 5 -2 0 0c0,0 -1,-1 -1,-1 -2,4 -1,-14 -3,-16l-3 -2 3 -11c3,-7 5,-14 5,-21 0,-4 0,-8 -1,-12 -2,-7 -3,-5 0,-10 -15,1 -16,-1 -15,-17 15,4 11,5 28,2l0 2 10 -7c-3,1 -5,2 -7,3l-1 -3c-2,-7 2,-2 -3,-6 -19,-4 -25,6 -29,8 -4,-9 -7,-7 -9,-24l1 -1 -5 -2 2 -17c-5,-1 -2,3 -4,-9 0,0 -1,-8 -1,-9l0 11c-24,0 -17,-1 -22,4l0 -11c-1,0 -3,5 -3,-2l-2 5c0,-10 1,-3 -2,-6z"/>
   <path class="fil4" d="M159 141c0,-14 6,-15 17,-10 1,6 -2,10 -4,14 -7,1 -10,-1 -13,-4zm25 -26c-1,2 1,3 -7,6 -9,4 -20,2 -23,-10 -3,-17 6,-28 20,-30l10 0c1,1 3,3 3,5 2,8 0,4 -2,5 2,11 2,15 -2,24zm-20 -33c-3,3 4,3 -4,3l-3 -3c-2,-1 -6,2 -8,4 -3,2 -8,10 -8,14 0,0 0,1 0,1l1 3c2,11 3,13 -7,16 0,5 -1,3 2,3 5,0 9,-2 13,1 7,4 8,20 3,25 -2,2 -1,1 -3,2 0,0 -2,1 -3,1 2,4 1,0 2,6 6,1 1,3 9,3 4,0 8,-1 10,-3 -7,2 -8,1 -9,-4 2,-4 6,-6 13,-5l-1 10 12 -4c-7,-10 -2,-14 11,-12 1,3 1,9 -1,12 -2,3 0,1 -3,2 3,3 9,6 13,8l-1 -7c5,-1 9,-1 11,3 4,6 -2,7 -7,7 2,1 3,2 5,3 3,3 3,2 3,5 3,-1 6,-2 10,-2 4,-3 15,-4 21,-3 8,2 10,7 19,6l2 -4c-10,-2 -14,-8 -20,-9 -6,0 1,0 -4,1 -3,1 -2,1 -5,1 -4,0 -8,-2 -11,-3 -7,-3 -12,-7 -16,-12 -7,-6 -22,-23 -19,-36 7,-1 8,-1 15,1 0,-4 0,-5 0,-8 0,0 1,-4 1,-4 1,-3 1,-2 1,-3 0,-5 -1,-2 2,-5 3,2 2,-2 3,4l1 0c8,-1 10,9 18,11 1,-2 1,0 -1,-3 0,0 -2,-3 -2,-3 -1,-2 -2,-5 -3,-8l-6 -3 -3 2c-2,-2 -2,-2 -5,-4 -6,-4 -3,1 -4,-5l-4 4c-16,-2 -3,-7 -28,-13 -3,2 -4,1 -7,2 -1,0 -4,1 -4,1 -2,1 -1,0 -2,2z"/>
   <path class="fil5" d="M220 683l0 30c0,5 0,4 -1,7 -2,8 1,5 0,11 0,2 -4,11 -10,12 9,11 15,5 14,24 -1,11 -4,22 -8,31 -12,28 -18,30 -28,49 5,1 15,4 18,5l2 -5 10 -3c-1,-20 -14,-9 12,-57 5,-9 9,-16 14,-24 2,-4 6,-8 4,-14 -1,-4 -6,-9 -8,-10 0,0 -2,-1 -2,-1l-2 -1c-11,-3 -12,-7 -14,-27 9,2 24,8 27,-4 -16,2 -16,-17 -15,-30 -7,2 -7,5 -13,7z"/>
   <path class="fil6" d="M38 515c2,16 5,15 9,24 4,-2 10,-12 29,-8 -2,-2 0,-1 -3,-2 -4,-2 -7,-1 -11,0 0,0 0,-1 0,0l-2 -5c8,0 4,-1 10,-5 11,-7 17,-35 14,-53 -9,-4 -24,-7 -36,-6 -5,11 -4,43 -3,57l-7 -2z"/>
   <path class="fil7" d="M210 568c-5,-7 -32,-20 -44,-22 -9,4 -12,12 -13,26 -2,16 -2,21 13,26 13,4 23,4 31,-3 8,-7 13,-12 13,-27z"/>
   <path class="fil8" d="M93 806c0,11 0,22 1,32 0,4 2,12 3,14 0,6 -2,6 -5,10l18 1c9,-15 8,-30 7,-50 -1,-13 -3,-26 -5,-38 -2,-15 -2,-30 -12,-31 0,7 -5,21 -6,29 -2,10 -2,21 -2,32z"/>
   <path class="fil9" d="M145 643c5,1 1,-1 5,4 2,2 1,2 3,5 3,3 5,5 7,8l11 6c16,5 18,10 39,10 0,0 0,-1 0,-1l2 1 8 -3 0 11c6,-2 6,-4 13,-7 -1,13 -1,32 15,30 -1,-10 -1,-21 -4,-29l-12 -1c0,-6 0,-12 4,-16 8,-8 5,-7 9,-11l-1 -1c-2,-5 -1,-8 -1,-14 -3,2 -11,13 -15,18 -4,5 -12,11 -19,14 -8,4 -20,4 -28,0 -9,-5 -9,-10 -15,-18 2,-2 -2,-2 6,-2 -1,-3 -5,-7 -8,-9l0 7c-1,0 -4,-1 -5,-2 -5,-3 -3,-2 -4,-5l9 -2c-2,-12 5,-16 15,-21 1,0 4,-2 4,-2 3,-2 1,1 2,-3 -15,-3 -37,-9 -40,15 -1,8 3,10 6,14l-4 3c-2,1 0,0 -3,1 0,0 -1,1 -1,1 0,0 -1,0 -1,1z"/>
   <path class="fil10" d="M39 514l-1 1 7 2c-1,-14 -2,-46 3,-57 12,-2 26,2 36,6 2,18 -3,45 -14,53 0,4 -1,2 1,2 6,-3 13,-5 20,-9 8,-4 12,-9 19,-12l0 -4c-7,0 -12,-3 -13,-9 -1,-7 3,-13 6,-17 -5,-6 -8,-9 -13,-14 -3,-4 -8,-11 -12,-15l-3 5c-11,-1 -25,-3 -35,-7 -4,1 -2,2 -2,7 -1,30 0,37 1,67z"/>
   <path class="fil11" d="M213 175c-6,2 -10,5 -14,7 1,9 7,10 6,19 -1,10 -6,11 1,19l-51 20c12,-2 52,-19 58,-17l3 3c7,10 7,24 25,16 9,-4 28,-8 28,-18 0,0 0,-1 -2,2 -9,1 -7,2 -10,-3 -3,4 -6,9 -12,12 -5,-2 -11,-12 -11,-20 0,-2 0,-5 1,-7l2 -3c-5,-1 -3,-1 -4,-7 0,-2 -1,-5 -1,-7 -2,-5 -5,-8 -5,-15l-4 2c1,-5 1,-5 3,-6l-4 -1c-4,0 -7,1 -10,2z"/>
   <path class="fil10" d="M74 313c-11,3 -16,-1 -26,1l-4 7 -6 17c5,-2 6,-3 11,-2 7,13 1,33 -6,44 -1,4 -1,4 -1,10 0,1 -1,6 -1,6 0,9 0,4 2,6 2,-7 5,-13 11,-15 10,-3 14,4 20,8l2 -23 -2 4 -11 -6c-1,-9 8,-42 19,-34l5 -18c-2,-3 -2,-9 -4,-10l1 11c-4,-2 1,-2 -4,0 0,0 1,-2 1,-2l1 -6c-3,2 -3,2 -8,2z"/>
   <path class="fil12" d="M44 401l-5 14c-1,5 -4,15 -2,20l4 5c10,3 24,6 35,7l3 -5c0,-5 -2,-15 -3,-22 0,-8 0,-16 0,-25 -7,-4 -11,-11 -20,-8 -7,2 -10,8 -11,15z"/>
   <path class="fil13" d="M263 176c-9,1 -11,-4 -19,-6 -6,-1 -17,0 -21,3l4 1c-2,0 -2,1 -3,6l4 -2c7,-3 14,-1 18,4 2,10 -3,20 -8,25l-2 3c-1,2 -1,4 -1,7 0,8 6,18 11,20 6,-3 8,-7 12,-12 3,5 1,5 10,3 2,-3 2,-2 2,-2 6,-8 3,-26 8,-33 3,-4 7,-4 7,-12 0,-6 -2,-12 -7,-13 3,11 -4,15 -7,22 -2,6 -5,16 -8,20 1,-8 4,-15 3,-27 0,-3 -1,-6 -3,-8z"/>
   <path class="fil14" d="M139 73c4,3 -4,-2 2,1 2,1 1,0 3,2l-10 6c0,0 -1,0 -1,1 -2,1 -12,16 -15,20l0 0c8,5 -1,-7 2,3 2,6 -5,31 -1,41 5,13 14,18 24,25 1,-2 2,-3 2,-3l1 -12c0,-6 1,-2 -2,-6 0,0 2,0 3,-1 2,-1 2,-1 3,-2 -10,2 -11,-3 -16,-9 -2,-2 -4,-5 -4,-9 0,-6 1,-4 4,-8 -2,0 -1,2 -2,-3l-4 0c0,-6 1,-14 5,-19 3,1 3,1 6,2l-1 -3c0,0 0,-1 0,-1 0,-4 6,-11 8,-14 1,-1 6,-4 8,-4l3 3c8,0 1,0 4,-3 -5,0 -2,2 -5,-1l2 -7c-4,0 -7,-1 -10,-3 -1,-1 -3,-3 -3,-3 -3,-2 0,-2 -5,-2l-3 7z"/>
   <path class="fil1" d="M103 722c-4,4 0,2 -4,3 1,1 3,18 3,19 9,0 9,15 12,31 2,12 4,25 5,38l4 -4 0 9c0,-6 0,-9 1,-15 4,-13 -3,-44 2,-57 3,-10 6,-8 2,-22 -3,-8 -4,-13 0,-22 -2,0 -4,0 -6,0 -3,0 -3,-1 -4,-1 -1,-6 1,-7 2,-13 -8,6 -2,8 -4,15 -1,4 -5,7 -10,7 -1,3 0,7 -2,10z"/>
   <path class="fil15" d="M110 495l0 4c-6,4 -11,8 -19,12 -7,3 -14,6 -20,9 -2,-1 -2,2 -1,-2 -6,4 -2,6 -10,5l2 5c0,0 0,0 0,0 5,-1 7,-2 11,0 3,1 1,0 3,2 4,4 0,-1 3,6l1 3c3,-1 5,-2 7,-3l-10 7c-1,8 -4,13 -13,13 -3,5 -1,3 0,10 1,4 1,8 1,12 0,8 -1,14 -5,21 3,-4 4,-7 7,-11 4,-7 3,-7 10,-12l-1 7c2,-10 0,-14 5,-23 3,0 7,0 10,-1 -6,-3 -2,1 -2,-3 0,-1 1,-2 2,-3 3,-5 2,-5 8,-4 -2,-2 -1,-1 -4,-3l-6 -3c-1,-7 -1,-6 2,-12 9,-16 11,-27 23,-20l7 4c-1,-8 -1,-24 -6,-29 -1,5 -2,3 -3,8l-4 0z"/>
   <path class="fil16" d="M102 166c-2,5 -2,10 -3,16 1,2 1,0 1,3 2,6 0,15 4,24 8,2 21,1 26,-5 4,-7 4,-33 0,-39 -8,-12 -23,-5 -26,7 -1,-2 -1,-1 -1,-5z"/>
   <path class="fil17" d="M91 875c-2,2 -3,2 -5,4 -7,5 -9,6 -15,13 -5,-1 -5,-1 -11,1l4 1c8,2 14,3 23,2 10,-1 1,-1 7,2 8,4 29,1 38,0l-1 -10c-3,-8 -1,-10 -7,-16l-15 -1c-4,0 -6,1 -10,3 -5,3 -5,4 -9,2z"/>
   <path class="fil18" d="M66 629l0 0c0,6 2,8 6,13l4 1c4,-5 -2,2 1,-2 11,-16 24,-3 24,6 0,0 1,1 2,1l2 1c0,-4 8,-47 -1,-46 -3,2 -6,7 -11,8 -22,6 -18,-10 -18,-20 -7,3 -11,12 -11,20 5,5 11,13 1,19z"/>
   <path class="fil19" d="M274 869c-2,3 -3,4 -6,7 5,3 2,1 4,7 1,4 0,2 4,4l-6 1c3,2 0,1 5,1 3,0 3,-1 6,-1 6,-1 6,0 12,1 8,2 17,1 25,0l8 -2c-1,-6 -4,-9 -7,-14 -7,-6 -8,-10 -17,-13l-12 0c-8,1 -10,5 -15,9z"/>
   <path class="fil20" d="M79 715c1,8 -1,16 0,23 1,8 5,9 6,15 2,10 2,29 2,40 3,5 2,11 2,17 0,4 -1,12 1,15 2,-5 -1,-13 3,-18 0,-11 1,-21 2,-32 1,-9 6,-22 6,-29 0,-1 -2,-18 -3,-19 -1,-7 -3,-6 -2,-15l-3 6c-2,4 4,2 -3,0 -4,-1 -5,-1 -9,-1l0 9c0,-5 0,-6 -2,-9z"/>
   <path class="fil16" d="M48 314c10,-1 15,2 26,-1 11,-9 11,-9 12,-27 0,-5 1,-15 0,-19 -2,-7 -7,-5 -10,-9 -4,4 -23,46 -27,55z"/>
   <path class="fil21" d="M44 320l4 -7c4,-9 23,-51 27,-55 3,-10 12,-23 15,-35 4,-10 8,-31 8,-42 0,-6 0,-11 3,-16 0,-9 4,-19 2,-28 -20,31 14,21 -29,94 -9,16 1,7 -6,13 -10,10 -6,10 -11,28 -4,15 -12,32 -15,47z"/>
   <path class="fil22" d="M15 418l-10 41c6,-3 14,-10 21,-11 6,15 11,28 9,48l-2 17 5 2c-1,-30 -2,-37 -1,-67 0,-6 -1,-6 2,-7l-4 -5c-2,-5 1,-15 2,-20l-4 5c-6,-5 -3,-5 -3,-5 -1,5 1,2 -4,4 -2,1 -12,0 -14,0z"/>
   <path class="fil2" d="M41 70l0 -4c2,9 8,15 13,19l16 11c3,2 1,0 3,3 18,2 31,-6 47,-13l11 -4c4,0 1,-1 3,1 0,0 1,-1 1,-1l10 -6c-1,-1 -1,-1 -3,-2 -6,-4 2,2 -2,-1 -5,4 -9,3 -16,4 -5,3 -9,2 -14,2 -6,0 -6,0 -10,2 -7,2 -15,4 -23,3 -8,0 -15,-2 -20,-7 -4,-4 -9,-12 -9,-18 -1,-2 -4,-3 -7,-3 -1,5 -1,10 1,13z"/>
   <path class="fil20" d="M6 459l-4 21c3,3 2,-5 2,6l2 -5c0,7 2,3 3,2l0 11c5,-5 -2,-4 22,-4l0 -11c0,1 1,9 1,9 2,12 -1,8 4,9 2,-20 -3,-32 -9,-48 -8,2 -15,8 -21,11z"/>
   <path class="fil7" d="M117 563c-8,53 28,29 30,25 0,-6 0,-26 -4,-28 -5,-4 -22,0 -26,4z"/>
   <path class="fil3" d="M66 669c2,7 5,15 8,23 2,7 4,15 5,23 2,3 2,4 2,9l0 -9c4,0 5,0 9,1 8,2 1,5 3,0l3 -6 2 -12c2,-7 0,-9 -3,-15 -1,-3 -2,-5 -3,-7 -2,-4 -1,-3 -4,-5 0,4 -1,2 -2,7 0,-5 -1,-6 -2,-9 -3,2 -1,0 -3,3 0,0 -1,2 -1,2l-8 0c-2,-3 -2,-3 -2,-7 0,0 -1,1 -1,1 0,0 -1,1 -1,1 -4,3 2,1 -3,0z"/>
   <path class="fil23" d="M157 864l-4 6c10,0 5,-2 14,0 11,3 32,1 44,0l0 -5 -5 -13c-3,-1 -14,-4 -18,-5 -6,0 -13,3 -18,7 -3,2 -6,4 -8,5 -3,3 -2,3 -6,5z"/>
   <path class="fil24" d="M202 651c13,2 19,6 24,-14 1,-4 2,-8 4,-11l-1 -6c-7,-2 -12,-1 -19,0 -9,1 -9,1 -13,7 -6,9 -7,19 5,24z"/>
   <path class="fil24" d="M61 600l-3 11 3 2c2,2 2,19 3,16 0,0 0,1 1,1 10,-6 3,-13 -1,-19 1,-8 4,-17 11,-20 0,10 -4,26 18,20 4,-1 8,-6 11,-8 0,0 1,-1 2,-2 0,0 1,0 1,-1 0,-1 0,-1 1,-1 -6,-3 -5,-24 -31,-11l0 -6 1 -7c-7,5 -5,5 -10,12 -2,4 -4,8 -7,11z"/>
   <path class="fil25" d="M292 567c8,2 12,5 16,-3 4,-4 7,-12 3,-18 -4,-6 -12,-5 -20,-7 -1,-6 0,-9 2,-14 -26,12 -14,41 -1,42z"/>
   <path class="fil7" d="M96 546c3,2 2,2 4,3 8,4 14,9 25,4 7,-3 18,-9 18,-17 -2,-3 -7,-5 -11,-8l-9 -9c-2,4 -10,8 -15,13 -2,2 -4,5 -6,8 -2,3 -2,5 -6,5z"/>
   <path class="fil26" d="M159 26c4,10 7,23 5,36 -4,0 -8,-1 -12,0 -6,0 -7,1 -9,5 4,0 2,0 5,2 1,0 2,2 3,3 3,3 6,4 10,3 7,-2 9,-2 15,2 25,6 11,11 28,13l4 -4 8 0 -5 -2 1 0c-2,-1 -4,-1 -7,-2 -6,-2 -5,-2 -6,-3 0,0 3,0 -5,-3 -3,-1 -3,0 -6,-2l5 -4c-4,-1 -10,-3 -14,-4 -6,-2 -5,-4 -7,-10 -3,-9 -5,-20 -4,-30 -3,2 -3,-3 -2,2l-2 -5c-3,7 1,3 -4,4z"/>
   <path class="fil16" d="M38 337c-4,10 -13,37 -15,49l1 3c5,-3 15,-9 19,-10 7,-11 12,-30 6,-44 -5,-1 -7,0 -11,2z"/>
   <path class="fil27" d="M128 667c1,3 1,4 2,6 1,4 -1,-2 1,3 1,2 1,1 1,4 3,3 6,6 11,6 3,-1 4,-1 3,-2l-2 -3 8 1c-3,0 -1,3 -1,-1 0,0 1,-3 1,-3 0,0 0,-1 0,-1 3,-6 3,-11 4,-14 0,0 -5,3 1,-1 0,0 0,0 1,0 3,-1 2,1 2,1 -1,-2 -1,0 -1,-4 -2,-3 -4,-5 -7,-8 -2,-2 -1,-2 -3,-5 -4,-6 0,-3 -5,-4 -6,3 -18,14 -17,24z"/>
   <path class="fil28" d="M212 676c-3,4 -12,6 -16,8l5 1 1 5c0,2 -1,0 0,3 12,-2 12,1 10,15 -7,-1 -11,-4 -16,-3 -5,1 -7,5 -12,6 2,9 10,19 14,21 13,0 9,-4 6,-11 -2,-6 -2,-6 2,-10l1 -3c6,2 9,4 13,6l0 -30 0 -11 -8 3z"/>
   <path class="fil9" d="M292 567c4,3 7,2 13,2 4,6 10,10 6,22 -5,16 -22,21 -38,20 -4,0 -9,-1 -13,-2 -6,-2 -5,-3 -9,-5 -4,2 -5,11 -4,16 18,6 15,-6 15,-8 1,2 3,4 5,6 4,4 0,5 6,3 19,-2 30,-4 39,-16 4,-6 7,-13 5,-22 -2,-9 -6,-13 -8,-20 -5,9 -9,5 -16,3z"/>
   <path class="fil7" d="M77 584l0 6c26,-13 24,8 31,11 3,-11 2,-30 -2,-40l-14 0c-3,1 -8,1 -10,1 -5,9 -2,13 -5,23z"/>
   <path class="fil18" d="M215 605l-3 8c-7,1 -8,1 -13,-2 -4,-3 -8,-4 -9,2l3 1c-1,8 -13,25 -17,26 0,1 -1,3 0,4 5,2 6,0 12,0 3,5 1,5 6,7 2,1 6,1 8,0 -12,-5 -11,-15 -5,-24 4,-6 5,-6 13,-7 7,-1 13,-2 19,0l1 6 1 3c2,-6 4,-9 3,-16 -12,-6 -8,-11 -20,-10l0 1z"/>
   <path class="fil29" d="M66 669c5,1 -2,3 3,0 0,0 1,-1 1,-1 0,0 1,-1 1,-1 0,4 -1,4 2,7l8 0c0,0 1,-2 1,-2 2,-3 0,-1 3,-3 2,3 3,4 2,9 2,-4 2,-2 2,-7l1 -1c-3,-2 -5,-7 -7,-11 -3,-4 -5,-6 -8,-11 -4,-2 -8,-8 -12,-11 -6,0 -5,-1 -10,-4 0,0 -1,0 -1,0 0,0 -1,0 -1,0 -2,-1 -2,0 -3,0 -2,0 -1,0 -4,-3 -2,-1 0,-1 -3,-2 -4,-2 2,-4 -2,0 1,5 12,16 15,20 5,6 10,20 13,22z"/>
   <path class="fil2" d="M245 163c-2,-4 -1,-3 -5,-4 -8,-1 -8,0 -13,-4 -7,-5 -9,-9 -13,-15 -2,-3 -3,-3 -4,-7 -1,-4 -1,-4 -1,-7l-3 -9 -3 -2c-6,-2 -8,-3 -15,-1 -3,13 12,30 19,36 5,5 9,8 16,12 3,1 7,3 11,3 3,0 2,0 5,-1 6,-1 -2,-1 4,-1z"/>
   <path class="fil16" d="M106 270c3,-8 7,-13 10,-19 3,-5 9,-14 10,-19l-3 -10c-9,0 -12,1 -16,6 -10,10 -12,16 -8,29 4,12 3,13 7,14z"/>
   <path class="fil9" d="M134 632c1,-2 10,-20 10,-22 3,-12 -12,-10 -20,-9 -13,2 -14,7 -9,18 5,11 5,13 19,12z"/>
   <path class="fil9" d="M266 691l3 -1c0,9 -1,4 1,8 1,2 1,3 2,4 -3,-22 7,-43 3,-66 -10,-1 -17,-1 -20,6 -3,5 -5,15 -4,22 8,5 15,3 23,0 -1,10 -3,19 -6,27z"/>
   <path class="fil24" d="M23 386l-8 32c2,0 11,1 14,0 4,-1 2,1 4,-4 0,0 -4,0 3,5l4 -5 5 -14c-2,-2 -2,3 -2,-6 0,0 1,-5 1,-6 1,-6 0,-6 1,-10 -4,1 -14,7 -19,10l-1 -3z"/>
   <path class="fil19" d="M40 883c-2,6 0,6 5,8 3,1 7,2 12,2 2,-3 4,-3 4,-3 1,-1 4,-2 5,-3 7,-4 12,-8 17,-13 3,-3 3,-6 7,-6l0 -2 -11 -2c-8,2 -15,5 -21,8 -3,2 -6,3 -9,5 -3,2 -5,4 -8,6z"/>
   <path class="fil30" d="M28 605l1 6c11,2 17,-3 19,-12 2,-7 5,-21 4,-28 -5,-2 -8,-3 -14,-1 -3,5 -11,28 -10,35z"/>
   <path class="fil31" d="M118 813c1,20 2,35 -7,50l-1 7 15 1c4,-8 6,-3 6,-17 -1,-4 -3,-5 -4,-11 -2,-11 -1,-27 -2,-36l-1 -5c-2,5 -1,9 -1,15l0 -9 -4 4z"/>
   <path class="fil32" d="M124 77c-16,0 -28,0 -43,-4 -15,-4 -22,-9 -34,-13 0,6 6,14 9,18 5,5 12,7 20,7 8,0 16,-1 23,-3 4,-2 4,-2 10,-2 6,0 10,1 14,-2z"/>
   <path class="fil5" d="M96 546c4,-1 4,-2 6,-5 2,-3 4,-6 6,-8 5,-5 12,-9 15,-13l-1 -3 -7 -4c-12,-6 -14,5 -23,20 -3,5 -2,4 -2,12l6 3z"/>
   <path class="fil6" d="M166 690l20 -3 10 -3c4,-3 13,-4 16,-8l-2 -1c0,0 0,1 0,1 -20,0 -23,-6 -39,-10 -1,4 -2,0 -2,13 -2,1 -2,2 -5,2 3,1 2,2 2,3 0,0 0,0 1,1 0,2 -1,2 -3,2 5,0 1,0 3,2z"/>
   <path class="fil33" d="M164 90c-2,2 -4,4 -5,7 -1,4 0,7 0,11l2 -6c2,-3 4,-8 10,-5 6,2 2,2 3,5 0,2 0,2 1,3l2 3c-2,4 -6,9 -12,5 0,0 -7,-1 0,4 1,1 5,2 6,2 5,0 9,-1 13,-3 4,-9 4,-13 2,-24 -2,-5 0,-2 -3,-5 -10,-2 -12,1 -19,3z"/>
   <path class="fil24" d="M165 636l0 1c2,2 7,6 8,9 1,-1 2,-3 4,-5 4,-1 16,-18 17,-26l-3 -1 -4 -4c-1,4 1,1 -2,3 0,0 -4,2 -4,2 -10,5 -18,9 -15,21z"/>
   <path class="fil2" d="M184 54l6 -1c3,5 11,16 15,16 2,-2 1,2 2,-3 2,-7 0,-4 -1,-6l0 4c-3,-16 -10,-2 -7,-28 1,-11 3,-22 12,-26 -6,-5 -3,0 -4,-3 4,-4 3,-1 5,-6 -10,0 -12,3 -15,10 0,0 -1,-1 -1,-1 -1,1 -1,-3 -4,-3 -2,8 2,11 2,20 0,7 -1,16 -1,23 -6,0 -7,-2 -10,2z"/>
   <path class="fil34" d="M186 687c-1,8 -4,15 -3,23 6,-1 8,-5 12,-6 5,-1 10,2 16,3 2,-13 2,-17 -10,-15 -1,-3 0,-2 0,-3l-1 -5 -5 -1 -10 3z"/>
   <path class="fil35" d="M79 862l0 1 11 2c2,-5 0,-2 3,-3 2,-4 5,-4 5,-10 0,-3 -2,-10 -3,-14 -1,-11 -1,-21 -1,-32 -4,5 -1,12 -3,18 -2,-3 -1,-10 -1,-15 0,-6 1,-12 -2,-17 0,14 0,27 0,41 0,5 -1,13 -2,18 -1,5 -5,8 -6,12z"/>
   <path class="fil24" d="M62 636c4,3 8,9 12,11 5,0 7,3 13,6 6,3 11,5 17,2 -2,-4 -2,-3 -2,-7 0,-9 -12,-22 -24,-6 -3,4 3,-4 -1,2l-4 -1c-5,-5 -6,-8 -6,-13l-5 2 1 6z"/>
   <path class="fil15" d="M207 61c1,1 3,-2 1,6 -1,6 -1,2 -2,3 -4,0 -13,-12 -15,-16l-6 1c4,6 6,0 8,14l-5 4c3,2 4,1 6,2 8,3 5,3 5,3 1,1 0,2 6,3 3,1 5,1 7,2 3,0 6,0 9,-1 4,-2 3,-2 4,-5l-6 2c0,-4 0,-6 2,-8l0 -8c-4,5 -2,5 -6,13 -2,-3 -2,-9 -3,-13 -2,-8 -3,-6 -6,-11l-5 -2c1,5 4,5 6,12z"/>
   <path class="fil16" d="M77 371l5 -36c-11,-8 -20,26 -19,34l11 6 2 -4z"/>
   <path class="fil3" d="M198 732c3,5 7,9 12,11 6,-1 9,-10 10,-12 1,-5 -2,-2 0,-11 1,-3 1,-2 1,-7 -3,-2 -7,-4 -13,-6l-1 3c-4,4 -4,4 -2,10 3,7 7,11 -6,11z"/>
   <path class="fil28" d="M136 123c-3,5 -4,2 -4,8 0,4 2,6 4,9 4,6 6,10 16,9 4,-6 4,-21 -3,-25 -4,-2 -8,-1 -13,-1z"/>
   <path class="fil32" d="M231 109c2,3 3,4 7,5 2,-5 4,-1 14,-5 5,-2 9,-3 11,-7 3,3 1,-2 1,3 4,-3 4,-4 4,-10 -22,3 -21,4 -43,0 1,3 2,5 3,8 0,0 2,3 2,3 1,3 2,1 1,3z"/>
   <path class="fil30" d="M16 524c8,0 17,-3 17,-12 -3,-2 -29,-17 -32,-18 2,12 9,23 16,29z"/>
   <path class="fil20" d="M143 686c2,2 0,1 4,2 2,0 4,1 6,1 5,0 9,0 13,0 -2,-3 2,-2 -3,-2 2,-1 3,0 3,-2 0,-1 -1,-1 -1,-1 0,-1 1,-2 -2,-3 3,0 3,0 5,-2 0,-13 1,-9 2,-13l-11 -6c0,4 0,2 1,4 0,0 1,-3 -2,-1 0,0 0,0 -1,0 -6,5 -1,1 -1,1 -2,3 -2,8 -4,14 0,0 0,1 0,1 0,0 -1,3 -1,3 0,4 -1,2 1,1l-8 -1 2 3c0,1 0,1 -3,2z"/>
   <path class="fil36" d="M217 227l-3 -3c-5,4 -61,25 -65,29 -4,3 -13,11 -14,16 20,-15 17,-13 40,-22 8,-3 15,-6 23,-9 7,-3 13,-8 20,-10z"/>
   <path class="fil37" d="M159 26c5,-1 1,3 4,-4l2 5c-1,-5 -1,0 2,-2 4,-2 7,-9 6,-16 -4,2 1,2 -4,4 -1,-7 -3,-10 -8,-12 -9,-3 -10,-1 -13,4 0,0 1,0 1,1 1,3 10,3 12,12 -4,-2 -3,-3 -7,-4 -1,8 1,8 6,12z"/>
   <path class="fil38" d="M229 177c-1,7 3,9 5,15 1,3 1,5 1,7 1,6 -1,6 4,7 6,-6 11,-16 8,-25 -4,-5 -10,-7 -18,-4z"/>
   <path class="fil28" d="M65 556c9,0 12,-4 13,-13l0 -2c-17,3 -13,2 -28,-2 -1,16 0,18 15,17z"/>
   <path class="fil9" d="M245 601c-2,-3 -15,-13 -17,-14 -4,-1 -1,-1 -3,0 -3,2 -5,10 -4,15 10,2 9,0 13,5l1 2c1,2 1,1 2,2 6,-3 8,-4 10,-11z"/>
   <path class="fil6" d="M110 495l4 0c1,-6 2,-3 3,-8 -1,-5 1,-1 -3,-6 -1,-2 -2,-2 -4,-4 -3,-3 -4,-6 -8,-8 -3,4 -7,10 -6,17 1,6 7,9 13,9z"/>
   <path class="fil39" d="M41 70c-1,9 3,19 8,24 6,6 16,5 25,5 -2,-2 0,-1 -3,-3l-16 -11c-6,-4 -11,-10 -13,-19l0 4z"/>
   <path class="fil40" d="M184 116c-4,2 -8,3 -13,3 -2,0 -5,-1 -6,-2 -7,-5 0,-4 0,-4 -3,-5 -5,-3 -4,-11l-2 6c-1,-4 -2,-7 0,-11 1,-3 3,-4 5,-7 1,-2 2,-3 4,-4 2,-1 2,-1 3,-2 2,-1 2,-1 3,-2 -14,1 -23,13 -20,30 2,12 13,13 23,10 8,-3 6,-4 7,-6z"/>
   <path class="fil7" d="M120 689c-2,6 -3,8 -2,13 1,0 0,1 4,1 2,0 4,0 6,0 1,-5 3,-7 5,-10 2,-6 -1,-6 0,-13 0,-3 -1,-2 -1,-4 -2,-4 0,2 -1,-3 -1,-2 -1,-3 -2,-6 -2,3 -2,8 -4,12 -1,5 -1,7 -5,9z"/>
   <path class="fil11" d="M265 172l-2 4c2,2 2,5 3,8 1,12 -2,19 -3,27 3,-4 6,-14 8,-20 3,-7 10,-11 7,-22 -5,0 -9,2 -12,4z"/>
   <path class="fil41" d="M159 141c4,3 7,5 13,4 2,-4 4,-8 4,-14 -11,-6 -17,-4 -17,10z"/>
   <path class="fil5" d="M275 708c-1,-2 -1,-5 -3,-6 -1,-1 -1,-1 -2,-4 -1,-4 0,1 -1,-8l-3 1 0 0c-8,12 -11,8 -6,20 4,1 14,2 15,-2z"/>
   <path class="fil9" d="M74 647c3,4 5,7 8,11 2,3 5,8 7,11l0 -4c2,0 9,-1 11,-2 5,-2 3,-1 4,-8 -6,3 -11,2 -17,-2 -6,-3 -8,-6 -13,-6z"/>
   <path class="fil32" d="M240 159c-2,-3 -16,-15 -26,-28 -2,-3 -2,-3 -5,-5 0,3 0,3 1,7 1,4 2,4 4,7 4,5 6,9 13,15 5,4 5,4 13,4z"/>
   <path class="fil9" d="M260 670c-16,0 -14,29 3,16 1,-8 1,-11 -3,-16z"/>
   <path class="fil21" d="M161 102c-1,8 1,6 4,11 5,4 10,-1 12,-5l-2 -3c-1,-1 0,-2 -1,-3 -1,-3 4,-3 -3,-5 -6,-2 -9,2 -10,5z"/>
   <path class="fil42" d="M57 894l4 -1c5,-1 5,-1 11,-1 5,-7 8,-8 15,-13 2,-1 3,-2 5,-4 0,-4 1,-4 -1,-8 -4,0 -5,4 -7,6 -5,6 -11,10 -17,13 -1,1 -4,2 -5,3 0,0 -1,0 -4,3z"/>
   <path class="fil21" d="M104 136c2,-4 4,-12 7,-16 3,-6 6,-11 8,-16l0 0c-4,5 -8,7 -13,12 -7,6 -7,10 -6,22l4 0z"/>
   <path class="fil28" d="M135 119c10,-4 9,-6 7,-16 -3,-1 -3,-1 -6,-2 -4,5 -5,13 -5,19l4 0z"/>
   <path class="fil29" d="M182 153l8 2c3,-1 1,1 3,-2 2,-3 2,-9 1,-12 -13,-2 -18,2 -11,12z"/>
   <path class="fil9" d="M180 662c10,1 10,-3 9,-12 -5,-2 -6,-3 -12,-2 -2,6 0,10 3,14z"/>
   <path class="fil10" d="M206 51c3,5 4,3 6,11 1,4 1,10 3,13 4,-8 2,-8 6,-13 -3,-10 -5,-12 -14,-11z"/>
   <path class="fil43" d="M97 710c-1,9 1,9 2,15 5,-2 1,1 4,-3 0,-5 0,-9 0,-15 0,0 -1,-5 -1,-5 -2,-6 0,-2 -3,-4l-2 12z"/>
   <path class="fil37" d="M238 114c12,3 24,1 26,-9 0,-5 2,0 -1,-3 -2,4 -6,5 -11,7 -11,4 -12,0 -14,5z"/>
   <path class="fil9" d="M215 605l0 -1c0,-6 -3,-6 -9,-5 -7,1 -7,1 -7,9 6,0 10,-2 17,-3z"/>
   <path class="fil29" d="M167 157l3 0 1 -10c-7,-1 -11,1 -13,5 2,5 3,6 9,4z"/>
   <path class="fil44" d="M202 163l3 3c6,0 11,-1 7,-7 -2,-4 -6,-4 -11,-3l1 7z"/>
   <path class="fil21" d="M161 74l-2 7c3,3 0,1 5,1 0,-2 -1,-1 2,-2 0,0 3,-1 4,-1 3,-1 4,-1 7,-2 -6,-4 -8,-4 -15,-2z"/>
   <path class="fil45" d="M164 90c7,-2 9,-5 19,-3 3,3 1,0 3,5 2,-1 4,3 2,-5 0,-2 -3,-4 -3,-5l-10 0c-1,1 -1,1 -3,2 -1,1 -2,1 -3,2 -3,2 -3,2 -4,4z"/>
   <path class="fil42" d="M262 887l8 0 6 -1c-3,-1 -3,0 -4,-4 -2,-6 1,-4 -4,-7 -3,5 -5,5 -6,12z"/>
   <path class="fil0" d="M221 70c-2,2 -3,4 -2,8l6 -2c4,-2 2,-7 1,-10 -4,2 -3,1 -4,5l0 -1z"/>
   <path class="fil21" d="M219 92c0,-6 0,-6 -4,-7l-8 0c1,6 -2,1 4,5 3,2 3,1 5,4l3 -2z"/>
   <path class="fil46" d="M204 114l3 2c1,-1 1,0 2,-2l0 -9c-1,-4 -1,-3 -2,-7 -1,1 -1,0 -1,3 0,0 -1,4 -1,4 -1,4 0,5 0,8z"/>
   <path class="fil20" d="M165 636l0 -1 -9 2c1,2 -1,2 4,5 1,1 4,1 5,2l0 -7z"/>
   <path class="fil47" d="M206 99c1,3 1,3 2,7l4 1 0 -8 -1 0 -1 2c-3,-3 -2,-2 -4,-1z"/>
   <path class="fil48" d="M206 99c3,-1 1,-2 4,1l1 -2c-1,-6 0,-2 -3,-4 -4,3 -2,-1 -2,5z"/>
  </g>
 </g>
</svg>
