<?xml version="1.0" encoding="UTF-8"?>
<!DOCTYPE svg PUBLIC "-//W3C//DTD SVG 1.1//EN" "http://www.w3.org/Graphics/SVG/1.1/DTD/svg11.dtd">
<!-- Creator: CorelDRAW X5 -->
<svg xmlns="http://www.w3.org/2000/svg" xml:space="preserve" width="306.852mm" height="173.054mm" style="shape-rendering:geometricPrecision; text-rendering:geometricPrecision; image-rendering:optimizeQuality; fill-rule:evenodd; clip-rule:evenodd"
viewBox="0 0 16138 9101"
 xmlns:xlink="http://www.w3.org/1999/xlink">
 <defs>
  <style type="text/css">
   <![CDATA[
    .fil3 {fill:#586F14}
    .fil2 {fill:#79A52A}
    .fil1 {fill:#94A61A}
    .fil5 {fill:#9B2327}
    .fil9 {fill:#9EEBF6}
    .fil7 {fill:#AE3224}
    .fil4 {fill:#C3462A}
    .fil8 {fill:#C52828}
    .fil0 {fill:#CC5926}
    .fil6 {fill:#DA7425}
   ]]>
  </style>
 </defs>
 <g id="Warstwa_x0020_1">
  <metadata id="CorelCorpID_0Corel-Layer"/>
  <g id="_378200448">
   <path class="fil0" d="M4872 5879l230 752 -200 -39c-68,-500 -520,-1828 -788,-2182 -126,-166 -445,-548 -597,-626l6 -174c91,56 198,162 281,236 95,85 157,137 259,242 442,455 609,1200 808,1791z"/>
   <path class="fil1" d="M3524 3611l-6 174 -26 140c-162,-18 -533,-294 -681,-364 10,-93 64,-190 92,-273l25 -23c37,-46 19,-42 43,-92 28,-60 -11,4 20,-32l18 -18c31,-27 9,-13 46,-29 -50,-138 -213,-275 -329,-355 -96,-66 -159,-107 -296,-50 -62,26 -59,37 -118,71 -36,21 -66,31 -102,49 41,-20 54,-33 85,-68l32 -41c60,-48 215,-319 277,-410 125,-181 161,-235 450,-196 216,29 955,225 1061,334 -296,96 -715,189 -1052,195 122,236 232,14 711,347 99,69 326,260 424,354 52,50 77,56 130,123 -4,2 -395,73 -458,-149 -12,-40 -12,-55 -30,-93l-3 165 -320 -44 8 285z"/>
   <path class="fil1" d="M1329 2575c31,35 6,20 53,40l447 109c76,24 154,50 243,74 3,1 56,16 57,17l43 28c84,56 60,18 152,47 -106,-22 -656,236 -755,299 -126,81 -135,188 -173,352 -51,216 -70,192 -8,326 9,20 13,35 22,52 2,5 5,9 7,14 3,5 6,10 8,14l19 29c42,60 72,156 85,234 -45,33 -115,83 -150,122 -85,51 -111,96 -203,141 -17,-308 -30,-878 85,-1166 54,-136 88,-146 210,-206 -184,-47 -193,15 -373,45 -137,23 -313,43 -450,51 48,-125 120,-108 186,-214 -146,-81 -351,-62 -512,-130 43,-68 35,-23 67,-101l-135 53c-82,5 -185,-31 -254,-59 273,-73 886,-227 1181,-173 134,24 135,36 148,1z"/>
   <path class="fil2" d="M2326 2700l-32 41c-31,36 -45,48 -85,68 36,-19 66,-28 102,-49 58,-34 55,-45 118,-71 137,-57 201,-16 296,50 116,80 279,217 329,355 -37,15 -15,1 -46,29l-18 18c-30,37 8,-28 -20,32 -24,51 -6,46 -43,92l-25 23c-65,2 -12,-13 -53,26 -19,18 -28,38 -39,54 -46,67 -36,72 -93,99 -4,-66 -217,-357 -293,-431 -26,-25 -4,-8 -37,-32 -43,30 -4,-6 -37,35l-276 411c-43,60 -85,90 -87,160 -87,-2 -98,-65 -205,-174 -20,124 155,192 86,305 -68,-34 -98,-138 -149,-193 -42,80 116,182 49,299l-157 233c-3,3 -6,7 -9,10l-32 29 -125 -144 -19 -29c-3,-4 -6,-9 -8,-14 -2,-5 -5,-9 -7,-14 -9,-17 -13,-32 -22,-52 -62,-134 -43,-110 8,-326 39,-164 47,-271 173,-352 98,-63 649,-321 755,-299 -92,-29 -69,9 -152,-47l-43 -28c-1,0 -54,-16 -57,-17 -89,-25 -167,-51 -243,-74l-447 -109c-47,-20 -23,-5 -53,-40 228,-96 267,-65 520,-2 158,40 322,97 477,127z"/>
   <path class="fil3" d="M2717 3467c6,71 12,63 -14,114l-156 21 153 63c-19,171 -281,789 -384,872 -219,-435 -194,-308 -59,-531l-142 112c-43,-157 -132,-346 -127,-508 2,-70 44,-100 87,-160l276 -411c33,-40 -6,-4 37,-35 34,24 11,7 37,32 76,74 289,365 293,431z"/>
   <path class="fil4" d="M6050 811c43,228 59,469 91,686 25,163 34,520 85,657 2,191 80,584 88,758 5,97 14,72 19,132 28,315 41,217 6,674 -7,89 13,190 -4,276 -15,84 124,52 126,156 1,51 7,73 -7,123 -38,-4 -36,-4 -72,-32l-51 338c-48,3 -307,-103 -354,-140l-642 -482c-70,-53 -136,-106 -205,-154 -80,-56 -164,-91 -172,-200 -17,-237 -19,-484 -31,-728 133,21 552,208 700,267 96,38 639,257 686,265 -21,-192 -108,-445 -119,-622 -212,4 -1169,91 -1287,54 -42,-42 -35,-33 -58,-89 142,-34 642,-12 823,-12 0,-8 -37,-139 -102,-189 -69,-53 -269,-147 -342,-195l-678 -413c-75,-42 -87,-49 -164,-115 -50,-40 -853,-300 -965,-324 34,-25 5,-15 59,-17l1316 364c227,57 471,136 671,188l677 175 -58 -354c-32,-197 -185,-1008 -177,-1080l139 33z"/>
   <path class="fil5" d="M9569 1888c79,36 457,286 523,345 6,115 -19,294 -28,408 -27,323 -44,296 -242,645 -45,80 -127,204 -161,280 -65,148 -63,1704 -102,2114 -19,206 -130,1120 -114,1193 11,55 440,849 534,1015 15,27 23,48 38,76 31,57 4,39 57,58l391 0 214 634 1049 143 61 216 -2023 4c-52,-26 -172,-26 -245,-24 -25,-89 21,-215 35,-315 35,-241 69,-203 -46,-244 -91,-52 -979,-485 -1051,-492 -98,-10 -191,-8 -290,-18 -164,-17 -444,-34 -601,-25 -31,-33 -104,-19 -164,-20 -15,-55 -53,-120 -89,-152 20,-20 -2,-8 36,-15l1548 197c-53,-122 -142,-134 -304,-206 -238,-106 -885,-419 -1058,-462 -27,131 -130,289 -192,416 -69,25 -45,-51 -89,-150 -25,-57 -51,-124 -57,-189l817 -381c66,-29 774,-353 812,-396 136,-31 239,1 370,-21 -15,3 -614,-386 -630,-395l-90 -33c-37,-8 -60,-10 -97,-17 -42,-8 -172,-17 -188,-50l-18 -41c-10,-27 -7,-27 -14,-54 -92,-412 -107,-383 -379,-656l-332 -347c-95,48 -186,222 -305,265 35,-163 126,-306 168,-481 41,-44 51,-121 79,-172l32 -46c2,-7 6,-8 10,-12 128,9 1414,737 1592,786l-74 -1814c-32,-296 -30,-597 -49,-898 -10,-171 -58,-748 -29,-880l46 663c3,23 17,75 30,84 100,31 319,67 440,68 31,-180 153,-381 180,-606z"/>
   <path class="fil0" d="M9569 1888c-27,225 -149,426 -180,606 -121,0 -341,-37 -440,-68 -12,-9 -27,-61 -30,-84l-46 -663c-28,133 19,709 29,880 18,301 17,602 49,898l74 1814c-177,-49 -1463,-777 -1592,-786 -4,4 -8,4 -10,12l-32 46c-28,52 -38,128 -79,172 -54,53 -401,-7 -477,-16 -178,-20 -341,-24 -521,-47l10 -137c0,16 2,52 -1,66 -16,71 -2,30 -28,64l11 -382c14,-49 8,-72 7,-123 -2,-105 6,-64 22,-148 16,-87 -3,-187 4,-276 36,-457 22,-359 -6,-674 -5,-60 -14,-35 -19,-132 -9,-174 -87,-567 -88,-758l3 79c168,-37 546,-21 739,-45 116,-14 251,-11 368,-25 414,-49 602,-26 970,-211 83,-42 448,-213 528,-225 3,-64 1,-117 -33,-146 0,-16 -2,-83 2,-98 16,-61 -17,-11 34,-51l44 -28 688 484z"/>
   <path class="fil6" d="M5910 778c-8,72 145,883 177,1080l58 354 -677 -175c-200,-52 -444,-132 -671,-188l-1316 -364c-54,2 -25,-7 -59,17 -139,-56 -302,-96 -440,-150 -78,-30 -44,5 -104,-190l-216 -697c-37,-113 -121,-358 -138,-466l3315 353 72 425z"/>
   <path class="fil7" d="M5794 7710c109,4 218,7 326,16 114,10 220,22 334,34 180,19 475,59 653,52 16,27 98,19 131,14 40,33 33,-50 33,59 -371,-6 -811,-56 -1175,-59 -121,-1 -146,-30 -244,-34 -83,-3 -139,17 -227,11 -225,-16 -147,-61 -368,96l-369 234c-15,9 -53,28 -73,42l-248 159c-92,54 -97,74 -203,123 -75,35 -101,52 -133,111 301,-26 1304,-40 1655,-44 194,-2 1050,-18 1228,-35 115,-11 231,-16 323,37l-2 470 252 1 -45 -471c-34,-16 -43,-25 -74,-43 154,-11 331,-3 486,3 158,7 329,-9 489,-8 320,1 642,0 962,-3 15,-19 29,30 8,-38 116,41 81,3 46,244 -14,100 -60,226 -35,315 72,-2 192,-2 245,24l-7117 0 151 -852c77,-10 1021,289 1163,337 152,52 146,58 281,-23 113,-68 613,-404 694,-427l-89 -142c-43,-63 -43,-63 -123,-87 -206,-61 -884,-275 -984,-292 21,-18 -27,-23 69,-19 155,0 332,30 489,43 170,14 327,32 497,47 332,29 660,57 995,105z"/>
   <path class="fil0" d="M7270 7885c55,12 238,27 299,17 157,-9 437,7 601,25 99,11 192,8 290,18 73,7 961,441 1051,492 22,69 7,20 -8,38 -320,4 -642,4 -962,3 -160,0 -331,15 -489,8 -155,-6 -332,-14 -486,-3 32,18 41,27 74,43l45 471 -252 -1 2 -470c-92,-53 -207,-48 -323,-37 -178,17 -1034,33 -1228,35 -352,4 -1355,18 -1655,44 32,-60 58,-76 133,-111 105,-50 111,-70 203,-123l248 -159c21,-13 58,-32 73,-42l369 -234c221,-157 143,-112 368,-96 88,6 145,-14 227,-11 98,3 123,33 244,34 364,3 804,53 1175,59z"/>
   <path class="fil6" d="M8838 1432c-51,41 -18,-10 -34,51 -4,15 -2,82 -2,98 34,28 36,82 33,146 -80,12 -445,183 -528,225 -368,186 -556,162 -970,211 -117,14 -252,11 -368,25 -193,24 -571,8 -739,45l-3 -79c-51,-137 -61,-494 -85,-657 -33,-217 -48,-458 -91,-686l2788 621z"/>
   <path class="fil6" d="M5117 5463l-79 2c75,37 655,221 788,265 271,91 528,182 793,267 136,44 260,92 403,135 181,54 1239,-41 1545,-4 16,10 616,398 630,395 -131,22 -234,-11 -370,21 -142,63 -1529,239 -1813,296 -240,47 -217,5 -506,-145 -320,-166 -595,-328 -914,-488 -151,-76 -308,-173 -457,-245 -42,-20 -90,-32 -126,-50 -94,-47 -264,-171 -358,-194 25,-60 61,-87 103,-144 37,-49 78,-101 112,-145 72,0 192,2 248,33z"/>
   <path class="fil4" d="M8827 6544c-38,44 -746,367 -812,396l-817 381c6,65 32,132 57,189 44,100 20,175 89,150l7 55c-38,6 -16,-6 -36,15 36,32 73,98 89,152 60,1 134,-13 164,20 -61,10 -245,-5 -299,-17 0,-109 7,-26 -33,-59 -32,5 -115,13 -131,-14l93 12 -5 -259c-138,-75 -2471,-1076 -2522,-1090l-18 -757c94,23 263,147 358,194 35,18 84,29 126,50 149,72 306,170 457,245 319,160 595,322 914,488 290,150 267,193 506,145 283,-56 1671,-233 1813,-296z"/>
   <path class="fil4" d="M7312 4716c-42,175 -133,317 -168,481 119,-43 210,-218 305,-265l332 347c273,273 287,244 379,656 6,27 4,27 14,54l18 41c16,33 146,42 188,50 37,7 60,10 97,17l90 33c-306,-36 -1364,58 -1545,4 -143,-43 -267,-91 -403,-135 -265,-85 -522,-177 -793,-267 -133,-44 -713,-228 -788,-265l79 -2c110,-11 1740,189 1934,206l23 -352c-71,-42 -145,-101 -209,-150l-419 -314c-35,-26 -74,-52 -105,-75 -51,-39 -63,-47 -45,-131 25,-34 11,7 28,-64 3,-14 1,-50 1,-66l-10 137c180,23 343,27 521,47 76,9 423,69 477,16z"/>
   <path class="fil6" d="M7107 7812c-178,6 -474,-33 -653,-52 -114,-12 -219,-24 -334,-34 -108,-9 -217,-12 -326,-16 30,-8 25,16 25,-15l-254 -200c-3,-2 -7,-5 -9,-8l-243 -180 -92 -88c-3,-2 -6,-5 -9,-7 -3,-2 -7,-5 -9,-7l-51 -30c-30,-20 -57,-40 -84,-63l-327 -260c-58,-48 -197,-142 -212,-164l-20 -50 165 -164c51,15 2384,1015 2522,1090l5 259 -93 -12z"/>
   <path class="fil0" d="M3683 7496c37,-9 28,-16 83,-5l48 23c-97,-3 -48,1 -69,19 100,17 779,231 984,292 80,24 79,24 123,87l89 142c-82,23 -582,359 -694,427 -135,81 -129,75 -281,23 -142,-48 -1086,-347 -1163,-337 85,-156 581,-590 654,-712 71,19 171,67 227,41z"/>
   <path class="fil6" d="M5794 7710c-335,-49 -663,-76 -995,-105 -170,-15 -327,-33 -497,-47 -157,-13 -333,-44 -489,-43l-48 -23c-54,-11 -46,-4 -83,5 98,-128 297,-298 419,-426 81,-85 131,-151 203,-221 60,-59 153,-142 204,-210l20 50c14,22 153,116 212,164l327 260c28,24 54,43 84,63l51 30c3,2 7,5 9,7 3,2 6,5 9,7l92 88 243 180c3,2 7,5 9,8l254 200c0,31 6,7 -25,15z"/>
   <path class="fil0" d="M4849 2751l-211 -4 -251 -921c76,66 89,73 164,115l678 413c72,49 272,142 342,195 65,50 102,181 102,189 -181,0 -681,-22 -823,12z"/>
   <path class="fil0" d="M7352 7716l-7 -55c62,-127 166,-285 192,-416 173,43 820,357 1058,462 162,72 252,84 304,206l-1548 -197z"/>
   <path class="fil6" d="M4927 2875l-20 -35c118,37 1075,-50 1287,-54 11,177 98,430 119,622 -47,-8 -590,-227 -686,-265 -148,-59 -567,-247 -700,-267z"/>
   <path class="fil6" d="M6098 2315l-35 424 -342 -30c-8,-85 -42,-166 -50,-239l-31 -236c90,22 374,76 458,82z"/>
   <path class="fil0" d="M2332 8228l1705 210c-107,62 -1323,331 -1398,342 5,2 12,-1 15,5 11,22 205,11 235,11 230,-1 525,27 793,23 47,-41 7,-28 167,-52 54,-8 112,-20 172,-30l1072 -169c298,-42 820,61 1106,82 168,12 178,-89 215,-189 624,0 1250,18 1874,16 528,-2 374,36 679,-247 60,-55 317,-279 385,-321 86,-53 74,-79 130,-117l92 -86c-48,-29 -64,-28 -215,-38 -226,-37 -502,-51 -730,-73 -201,-20 -542,-69 -730,-66 -175,3 -399,267 -531,256l-633 -146c-421,-102 -863,-191 -1286,-293 -192,-46 -1169,-272 -1300,-286 -31,63 -35,52 -100,92l-345 211c-155,94 -304,189 -459,283l-881 550c-23,21 -12,8 -30,31z"/>
   <path class="fil7" d="M10148 8114c-42,92 -64,252 -89,375l-69 387 173 -8c-378,59 -2213,10 -2859,11 -294,0 -684,22 -966,-5 38,-139 791,-1614 867,-1710 217,41 525,160 746,235 239,80 484,171 724,246l551 190c64,19 114,29 181,52 196,68 525,196 741,227z"/>
   <path class="fil5" d="M10643 4817l-19 1414c-130,31 -712,329 -793,405 5,4 13,3 16,10 14,39 951,262 1001,274 344,86 689,172 1031,265 174,47 326,80 510,142l1555 392 12 31c-320,-46 -1522,-353 -1664,-344 -52,3 -884,467 -983,519 -95,49 -230,120 -330,183 -53,54 45,503 36,774l-197 13 -173 8 69 -387c25,-123 47,-283 89,-375 247,-167 822,-402 1007,-548 4,-3 9,-8 13,-11 71,-56 224,-157 271,-214l-446 -45c39,52 135,158 161,222 -158,-68 -126,-165 -344,-247 -318,-119 -1984,-796 -2125,-763 -220,50 -619,329 -836,355l30 -1026 641 -5 200 -1539 56 -35c216,133 992,351 1210,531z"/>
   <path class="fil7" d="M3681 8819c239,-4 486,16 728,22 232,6 492,-5 720,14l1414 42c827,2 1743,68 2523,66 123,0 307,23 344,-10l-103 -10c111,-249 84,-844 173,-1151 -56,39 -44,64 -130,117 -67,42 -325,265 -385,321 -305,283 -150,245 -679,247 -624,2 -1250,-16 -1874,-16 -37,100 -47,201 -215,189 -286,-21 -808,-125 -1106,-82l-1072 169c-60,10 -118,22 -172,30 -161,24 -121,11 -167,52z"/>
   <path class="fil0" d="M12351 5170c3,126 -154,533 -202,677 -41,125 -203,581 -207,683 -183,-31 -864,-467 -966,-457 -56,5 -255,121 -315,145l-37 13 19 -1414c-18,-235 55,-569 -3,-774 114,16 35,41 124,-44l119 -138c4,-6 13,-24 17,-30 3,-4 6,-11 8,-15 28,-43 9,-44 69,-66 155,-67 1226,1031 1372,1420z"/>
   <path class="fil6" d="M10805 8142c-216,-32 -545,-160 -741,-227 -67,-23 -117,-33 -181,-52l-551 -190c-240,-75 -485,-166 -724,-246 -221,-74 -529,-194 -746,-235l644 -300c218,-26 616,-304 836,-355 142,-33 1808,644 2125,763 218,82 186,178 344,247 -26,-63 -122,-170 -161,-222l446 45c-47,57 -200,158 -271,214 -4,3 -9,8 -13,11 -185,146 -760,380 -1007,548z"/>
   <path class="fil7" d="M15669 8407c143,14 405,491 406,508 -236,28 -3416,5 -3945,5 -77,0 -1244,30 -1309,-25l197 -13c8,-271 -89,-720 -36,-774 -26,110 -16,25 14,59 148,-4 2171,108 2369,126 307,29 699,19 915,41 78,8 172,46 258,48 126,2 108,-35 285,-15 138,16 797,50 847,39z"/>
   <path class="fil7" d="M4129 7002l18 59c131,14 1107,239 1300,286 423,102 866,191 1286,293l633 146c132,11 356,-253 531,-256 188,-3 529,47 730,66 227,22 504,36 730,73 -68,-41 -48,-82 -47,-172 1,-78 1,-133 -5,-214l-1306 -76c-403,-44 -889,-67 -1308,-85 -202,-9 -459,-27 -654,-46 -219,-22 -436,-12 -653,-37 -32,-4 -1174,-96 -1213,-81 -37,13 -47,-49 -42,42z"/>
   <path class="fil0" d="M13957 7751c255,91 726,111 951,228 124,65 241,131 377,203 115,61 309,125 384,225 -50,11 -708,-23 -847,-39 -177,-20 -158,18 -285,15 -87,-2 -181,-40 -258,-48 -216,-23 -609,-13 -915,-41 -198,-18 -2221,-130 -2369,-126 -30,-34 -40,52 -14,-59 101,-63 235,-133 330,-183 99,-51 931,-516 983,-519 142,-9 1345,298 1664,344z"/>
   <path class="fil6" d="M11942 6530c345,175 705,356 1049,541 164,88 354,171 520,268 316,185 234,75 433,382l-1555 -392c-184,-62 -336,-95 -510,-142 -342,-92 -687,-179 -1031,-265 -50,-13 -987,-235 -1001,-274 -3,-8 -11,-6 -16,-10 80,-77 662,-374 793,-405l37 -13c60,-24 259,-140 315,-145 101,-10 783,426 966,457z"/>
   <path class="fil7" d="M9808 8793l37 -15 36 -13c85,-21 64,-10 279,-11 343,-2 677,1 1020,-13 0,-147 -30,-270 -37,-407 -9,-184 -9,-270 -37,-428 -50,0 -433,-5 -464,37 -278,0 -159,33 -263,-129l-67 -127c-2,-4 -4,-8 -6,-12l-47 -75c-24,-40 21,35 -14,-24 -36,-62 -58,-97 -110,-152 -34,39 -168,369 -227,484 -2,3 -5,8 -6,11l-152 367c-56,152 -111,172 -168,314 -12,30 -18,60 -35,97 -20,43 -19,26 -36,62l242 -1c83,14 33,-19 55,35z"/>
   <path class="fil5" d="M9304 7284c6,81 6,135 5,214 -1,90 -21,131 47,172 151,10 167,10 215,38l-92 86c-88,307 -62,902 -173,1151l103 10c63,-3 353,-123 398,-161 -22,-54 27,-21 -55,-35l-242 1c16,-36 15,-19 36,-62 17,-37 23,-66 35,-97 57,-142 112,-163 168,-314l152 -367c2,-3 5,-8 6,-11 59,-115 192,-445 227,-484 8,-54 127,-391 175,-425l72 -26c50,-13 64,-14 113,-18 51,-4 176,-27 241,-46 -36,-27 58,-23 -74,-23 -254,26 -527,83 -798,123 -17,-35 -20,-69 -34,-101 -40,-93 7,-83 -96,-67 -46,96 -318,299 -430,444z"/>
   <path class="fil8" d="M10640 4043c58,205 -15,539 3,774 -218,-180 -994,-398 -1210,-531l-56 35 132 -1111c161,-36 372,-134 524,-128 80,33 555,867 606,961z"/>
   <path class="fil6" d="M12351 5170c-146,-389 -1217,-1486 -1372,-1420 -60,22 -41,23 -69,66 -3,4 -6,11 -8,15 -4,6 -13,24 -17,30l-119 138c-90,85 -10,60 -124,44 -51,-95 -526,-928 -606,-961 63,-58 635,127 765,159 418,105 432,66 693,326l526 493c68,68 457,438 532,488 -7,127 -135,544 -199,622z"/>
   <path class="fil7" d="M2638 8781c75,-12 1292,-281 1398,-342l-1705 -210 -126 538c89,33 339,25 433,14z"/>
   <g>
    <path class="fil0" d="M14589 6000c80,-77 51,-96 112,-166 12,37 -2,43 -15,70 -37,77 -94,148 -96,237 -37,17 -469,938 -519,1055 -32,75 -69,146 -97,206 -36,76 -201,557 -196,626l-481 -58c28,-751 118,-1475 231,-2216 11,-1 49,-3 59,-1 50,8 14,0 44,23 -93,691 -84,1510 -117,2219l129 17c77,-114 223,-561 288,-714 110,-262 278,-585 425,-837l233 -460z"/>
    <path class="fil2" d="M14370 3172c-36,27 -84,36 -85,37 156,129 305,414 342,643l-66 35c-3,2 -7,6 -10,8l-90 77c-88,65 -63,73 -128,165 97,170 207,176 231,295 -61,119 -189,316 -275,375 -181,-318 -55,-733 -126,-876 -28,32 -40,77 -52,118 -12,41 -27,91 -36,131 -64,281 -182,586 -226,809 227,-41 209,-116 583,66 350,170 225,157 380,396 77,-72 115,-152 204,-212 113,33 171,140 242,215 127,137 202,13 352,130 133,103 335,370 423,544l104 210 -376 -162 -481 -176c-51,297 -40,303 -200,537l-78 108c-43,43 -4,12 -46,38l-138 -413c-62,52 -134,122 -236,150l9 -279c2,-89 59,-160 96,-237 13,-27 27,-32 15,-70 -62,70 -33,88 -112,166l-60 14 -43 -92c-20,103 49,99 -160,162 -92,28 -213,50 -311,57 27,-93 59,-136 99,-216 61,-123 71,-108 89,-190 -96,19 -155,55 -252,43 -59,-7 -255,-17 -319,-3 -30,-23 6,-15 -44,-23 -10,-2 -48,1 -59,1 -124,-33 -35,0 -70,-39 117,-147 124,-132 183,-356 40,-151 78,-290 119,-438l214 -755c21,-71 22,-73 0,-103l46 -40c38,-46 43,-97 62,-182 24,-108 -18,-154 -59,-247 -69,-156 -76,-277 -58,-439 9,-84 31,-52 -44,-99 -74,34 -171,237 -215,310 -196,18 -497,-103 -625,-135 -86,-21 -144,0 -211,-45 -40,-37 52,-58 12,-128 -40,44 -90,71 -111,128 -83,-5 -321,-68 -363,-49l-484 -128c273,-154 752,-317 1116,-369 378,-54 359,21 552,140 110,68 464,-70 656,-26 50,97 41,298 38,430l83 -12z"/>
    <path class="fil1" d="M15187 3099c117,65 360,87 463,182 47,43 233,316 253,385l-273 -74 -39 -72c-2,3 -5,9 -7,12 -32,49 5,8 -28,40l-419 -65c100,90 334,335 385,363 -4,3 -11,1 -14,8 -14,38 6,-3 -41,22 -4,2 -10,5 -13,7 -3,2 -9,4 -13,7 73,53 106,53 132,129 62,178 70,553 69,739 -74,-14 -330,-187 -417,-241 -100,-61 -120,-131 -179,-153 -82,-32 -58,7 -112,-57 -33,-39 -23,-58 -74,-80l-12 434c-82,-58 -205,-229 -283,-254 -24,-119 -134,-125 -231,-295 65,-92 39,-100 128,-165l90 -77c3,-2 7,-6 10,-8l66 -35c-37,-229 -186,-514 -342,-643 1,-1 49,-10 85,-37 384,-227 408,-115 817,-73z"/>
    <path class="fil3" d="M13975 4063l-37 32c-48,-6 -35,22 -64,-46 20,107 34,69 -38,130 -74,63 -319,276 -371,289 -29,-230 -35,-492 18,-716l177 -26 -179 -48 34 -153 31 -121c-281,6 -370,-22 -605,-104 -171,-60 -355,-109 -531,-163 42,-19 280,45 363,49 21,-57 71,-84 111,-128 40,69 -52,90 -12,128 67,46 125,24 211,45 128,32 430,154 625,135 44,-73 141,-275 215,-310 75,47 54,15 44,99 -18,162 -11,283 58,439 41,93 83,138 59,247 -19,86 -23,137 -62,182l-46 40z"/>
   </g>
   <path class="fil9" d="M9185 3934c-27,491 -155,927 -170,1373 -11,328 -44,750 -163,1047 -33,83 -63,84 -72,148 -95,7 -90,-5 -185,18 -596,143 -521,70 -979,47 -64,-3 -153,-2 -187,42l92 38c-53,62 -1007,286 -1212,340 -364,95 -159,75 -293,217l-106 232 -297 637 -134 305c35,-43 39,-63 63,-115l195 -345c76,-125 80,-186 187,-331 15,-21 28,-35 41,-51 221,-288 370,-372 761,-374 189,-1 129,16 240,75 0,306 -496,1008 -439,1226l482 -740c25,-84 71,-273 120,-342 28,-180 116,-131 467,-106 146,11 434,19 558,49 28,48 26,116 27,172 5,250 24,1132 50,1256l-3 334c60,21 1859,15 2078,15 697,0 1389,-18 2085,-27 -78,-67 -279,-11 -402,-15 19,-22 5,-12 35,-29 81,-46 70,5 255,-133 -7,-80 13,-10 -25,-79 -149,-93 -553,72 -740,-3 -30,-137 114,-85 190,-84l-34 -66c-57,-15 -85,-9 -114,13 -71,54 53,-12 -26,29l-47 6 -356 -1253c-63,-130 -99,-491 -203,-561 -94,-63 -427,-222 -486,-301 -74,-8 -45,-26 -117,-41 -104,-23 -873,-3 -1033,-9 0,-25 5,-43 5,-45 1,-64 -4,-11 -32,-109 -15,-51 -24,-126 -33,-177 -46,-264 -172,-881 -134,-1083 81,-429 209,-928 338,-1330 55,-171 -6,-245 164,-303l487 -448c-48,-71 -255,-52 -521,116 -157,25 -16,178 -202,451 -29,84 -169,226 -174,315z"/>
  </g>
 </g>
</svg>
