<?xml version="1.0" encoding="UTF-8"?>
<!DOCTYPE svg PUBLIC "-//W3C//DTD SVG 1.1//EN" "http://www.w3.org/Graphics/SVG/1.1/DTD/svg11.dtd">
<!-- Creator: CorelDRAW X5 -->
<svg xmlns="http://www.w3.org/2000/svg" xml:space="preserve" width="414.963mm" height="130.206mm" style="shape-rendering:geometricPrecision; text-rendering:geometricPrecision; image-rendering:optimizeQuality; fill-rule:evenodd; clip-rule:evenodd"
viewBox="0 0 11046 3466"
 xmlns:xlink="http://www.w3.org/1999/xlink">
 <defs>
  <style type="text/css">
   <![CDATA[
    .fil3 {fill:#9B2327}
    .fil5 {fill:#AE3224}
    .fil4 {fill:#C3462A}
    .fil0 {fill:#CC5926}
    .fil2 {fill:#DA7425}
    .fil1 {fill:white}
   ]]>
  </style>
 </defs>
 <g id="Warstwa_x0020_1">
  <metadata id="CorelCorpID_0Corel-Layer"/>
  <path class="fil0" d="M64 3090l863 106c-54,31 -670,167 -708,173 2,1 6,0 8,3 5,11 104,6 119,6 116,-1 266,14 401,11 24,-21 3,-14 85,-26 27,-4 57,-10 87,-15l543 -85c151,-21 415,31 560,42 85,6 90,-45 109,-96 316,0 633,9 948,8 267,-1 189,18 344,-125 30,-28 161,-141 195,-162 44,-27 37,-40 66,-59l46 -44c-24,-15 -33,-14 -109,-19 -114,-19 -254,-26 -369,-37 -102,-10 -274,-35 -370,-33 -89,1 -202,135 -269,130l-321 -74c-213,-52 -437,-97 -651,-148 -97,-24 -592,-138 -658,-145 -16,32 -18,26 -51,47l-174 107c-78,48 -154,96 -232,143l-446 278c-12,10 -6,4 -15,16z"/>
  <path class="fil1" d="M2969 1760l842 141c19,-4 132,-137 156,-162l474 -534 -37 -130c-13,-18 -70,-142 -83,-170 -26,-53 -71,-118 -84,-174l-27 0c-95,15 -237,15 -338,22 -106,7 -220,15 -332,23 -113,9 -224,17 -337,24 -52,3 -106,8 -160,12 -105,8 -120,-7 -133,36 -48,157 -135,343 -198,507 -33,86 -16,75 89,215 45,60 122,182 170,189z"/>
  <path class="fil2" d="M768 1201c21,-32 30,-21 100,-43 38,-12 76,-23 113,-36 229,-76 118,-65 429,63l148 67c41,20 31,9 42,44l-219 77c28,4 566,-111 595,-129 10,-16 3,8 6,-18l-28 -211c-12,-85 -95,-684 -94,-719 -67,30 -755,29 -902,40 -138,10 -311,15 -452,15 -150,0 -308,19 -454,17 33,85 43,47 57,174 8,68 21,139 23,207 146,113 322,226 474,338 45,33 118,91 162,113z"/>
  <path class="fil3" d="M1859 296c-2,36 82,634 94,719l28 211c-2,25 4,2 -6,18 -29,17 -568,133 -595,129 -21,29 -47,22 -109,39 -62,18 -54,1 -88,42l539 67 152 -200 102 718 265 70c24,6 918,-12 1024,-13 97,-1 395,-10 470,7 6,-72 -44,-43 -122,-43 -63,0 -125,0 -188,0 -161,0 -1065,10 -1089,1 -128,11 -281,-39 -334,-40l-65 -596c43,12 89,26 122,34 108,25 138,-31 160,82 5,24 10,49 14,70l76 408c18,45 -2,17 27,35 93,-42 219,-112 317,-135 9,-2 258,-116 292,-139 22,-15 10,-5 23,-20 -48,-8 -125,-129 -170,-189 -106,-141 -123,-129 -89,-215 63,-164 150,-351 198,-507 13,-43 28,-29 133,-36 54,-4 108,-8 160,-12 113,-7 224,-15 337,-24 112,-9 227,-16 332,-23 101,-7 243,-7 338,-22l2 -27c-214,5 -419,-129 -681,-87l-691 107c-146,22 -322,56 -470,67 7,-44 153,-378 180,-416l-11 -6c-39,-5 -48,3 -82,-11 -18,-8 -34,-24 -58,-34 -29,29 -25,51 -38,102l-144 538c-19,48 -56,62 -129,66 2,-130 66,-785 50,-841l-156 149 -121 -40z"/>
  <path class="fil2" d="M1723 1522l205 524 -671 15c-30,31 -49,61 -75,96l-157 200c-58,79 -74,75 -50,113 -2,-46 3,-15 21,-21 20,-7 598,39 614,41 110,13 220,8 331,19 99,10 229,19 331,23 212,9 458,21 662,43l661 38c56,-73 194,-176 218,-225 13,-28 7,-39 -4,-71 -10,-29 -14,-49 -22,-72 -6,-18 -41,-134 -49,-141 -75,-17 -373,-7 -470,-7 -106,1 -1000,18 -1024,13l-265 -70 -102 -718 -152 200z"/>
  <path class="fil4" d="M4806 3354l-263 -5c-174,7 -343,6 -516,7 -109,1 -98,-5 -141,6l-18 7c267,-13 855,-3 1155,-2 191,0 382,1 573,0 61,0 76,11 131,12 47,1 94,0 141,0 92,0 177,-6 272,-6 0,-46 6,-79 11,-126 8,-76 46,-226 46,-319 -113,0 -33,-19 -231,-19 11,-23 -4,-19 15,-27 -33,6 -20,36 -52,-74 -21,-74 -202,-612 -217,-641 -47,-11 -591,99 -641,134 -27,19 -108,120 -119,142 -22,43 -10,179 -17,241 -9,79 -18,163 -24,240 -7,81 -14,158 -23,239 -24,203 7,209 -80,192z"/>
  <path class="fil2" d="M4445 1209l-5 -3 -474 534c-25,25 -137,158 -156,162l-4 32 159 103c2,1 4,2 6,3l25 14c2,1 4,2 6,3l137 80c28,18 44,22 70,43 97,77 90,61 145,43 48,5 107,-41 133,-56l655 -274c31,-14 58,-24 86,-36 78,-34 136,-31 151,-92 33,-134 73,-251 110,-388 2,-1 4,-1 5,-1l16 -4c32,-8 46,-93 41,-122 -7,-40 -12,-7 -11,-60 2,-72 14,-23 -2,-45l-1095 64z"/>
  <path class="fil5" d="M4355 2222c-2,2 -9,12 -10,14 -16,36 -13,122 -11,161 -36,2 -28,-2 -54,12 67,0 19,-2 37,12 -33,10 -96,21 -122,23 -25,2 -32,3 -57,9l-36 13c-25,17 -85,188 -89,215 26,28 38,46 56,77 17,30 -5,-8 7,12l24 38c1,2 2,4 3,6l34 64c53,82 -7,66 133,66 16,-21 209,-19 235,-19 14,80 14,124 19,217 3,69 19,131 19,206l263 5 9 -859c49,-44 156,-139 190,-180 -10,-6 -41,-11 -58,-27 39,-15 112,-29 162,-42l138 -38c154,-61 179,-57 328,-102 -22,-84 -28,-256 -40,-353 -17,-138 -26,-220 -7,-362 36,12 54,24 83,44 32,22 51,29 82,49l232 144c26,15 71,21 98,30l151 45c49,17 23,-4 42,30l26 -75 -30 10 -385 -213c-364,-221 -214,-222 -238,-313l-48 3c16,22 4,-27 2,45 -1,53 4,20 11,60 5,30 -10,114 -41,122l-16 4c-1,0 -4,0 -5,1 -37,137 -77,254 -110,388 -15,61 -73,58 -151,92 -28,12 -55,23 -86,36l-655 274c-26,14 -85,61 -133,56z"/>
  <path class="fil3" d="M5291 625c34,23 10,1 31,40l133 223c47,74 53,64 33,94 50,13 37,3 52,33 1,2 3,5 4,7 2,4 10,19 13,26 244,0 179,11 398,36 115,13 108,20 222,20l3 33c16,-220 172,-946 165,-1075l-1181 -49c13,115 27,230 39,340 5,54 4,117 28,158 21,36 57,76 61,113z"/>
  <path class="fil0" d="M5980 2881c-19,7 -4,4 -15,27 198,0 118,19 231,19 0,93 -37,243 -46,319 -5,47 -11,80 -11,126l4906 -3c-99,-6 -70,-12 -211,-12l-3240 0c-43,-23 -114,-270 -125,-325 92,-9 334,1 404,-40 2,-1 4,-3 6,-4 2,-1 4,-2 6,-3 2,-1 4,-2 6,-3 2,-1 4,-2 6,-3 27,-13 -3,5 24,-12 18,-12 32,-22 51,-34 8,-18 9,-15 8,-25l-1223 -254c-28,13 -50,1 -108,17 -156,43 -513,162 -671,213z"/>
  <path class="fil2" d="M2538 368l11 6c-27,38 -174,372 -180,416 147,-10 324,-44 470,-67l691 -107c263,-42 468,93 681,87l305 53c-5,-36 -83,-288 -101,-344 -18,-59 -99,-298 -93,-344l-21 -29 -800 143 -10 61c-65,13 -391,43 -487,54 -75,8 -428,32 -466,69z"/>
  <path class="fil3" d="M4806 3354c87,17 56,11 80,-192 9,-81 17,-158 23,-239 6,-78 15,-161 24,-240 7,-62 -5,-198 17,-241 11,-22 93,-123 119,-142 49,-35 593,-145 641,-134 15,29 196,567 217,641 32,110 19,80 52,74 158,-51 515,-170 671,-213 58,-16 80,-3 108,-17l-648 -128c18,-288 -72,-258 -17,-422 26,-76 115,-307 120,-368 -18,-35 7,-13 -42,-30l-151 -45c-27,-9 -73,-14 -98,-30l-232 -144c-31,-19 -50,-27 -82,-49 -29,-20 -47,-32 -83,-44 -19,142 -11,224 7,362 12,96 18,268 40,353 -149,45 -174,41 -328,102l-138 38c-50,12 -122,27 -162,42 17,16 48,21 58,27 -34,40 -140,136 -190,180l-9 859z"/>
  <path class="fil5" d="M10280 3213c-2,46 -11,70 -22,110l-2334 -61c48,-36 117,-60 168,-82 47,-20 134,-46 160,-86l-247 -13 -30 -151c-19,13 -33,23 -51,34 -26,17 3,-1 -24,12 -2,1 -4,2 -6,3 -2,1 -4,2 -6,3 -2,1 -4,2 -6,3 -2,1 -4,3 -6,4 -70,41 -312,31 -404,40 11,55 81,302 125,325l3240 0c141,0 112,6 211,12l-71 -457c-152,1 -304,30 -444,51 -116,18 -94,24 -149,104 -37,53 -75,100 -102,148z"/>
  <path class="fil0" d="M4438 65l67 7 177 731 -447 -71c14,56 58,120 84,174 14,27 71,152 83,170 13,-21 396,-190 445,-211 132,-53 276,-128 402,-182 28,-12 32,-11 52,-29l-11 -29c-5,-37 -40,-77 -61,-113 -24,-41 -23,-104 -28,-158 -11,-110 -25,-226 -39,-340 -39,-22 -323,-12 -382,-4l-322 45c-21,7 -9,1 -22,10z"/>
  <path class="fil5" d="M747 3389c121,-2 246,8 369,11 117,3 249,-2 364,7l716 21c419,1 882,34 1277,34 62,0 156,12 174,-5l-52 -5c56,-126 43,-427 87,-582 -28,20 -22,32 -66,59 -34,21 -165,134 -195,162 -155,143 -76,124 -344,125 -316,1 -632,-8 -948,-8 -19,51 -24,102 -109,96 -145,-11 -409,-63 -560,-42l-543 85c-30,5 -60,11 -87,15 -81,12 -61,6 -85,26z"/>
  <path class="fil5" d="M973 2469l9 30c66,7 561,121 658,145 214,52 438,97 651,148l321 74c67,6 180,-128 269,-130 95,-2 268,24 370,33 115,11 255,18 369,37 -34,-21 -24,-41 -24,-87 0,-40 0,-67 -3,-108l-661 -38c-204,-22 -450,-34 -662,-43 -102,-4 -232,-13 -331,-23 -111,-11 -221,-6 -331,-19 -16,-2 -594,-48 -614,-41 -19,7 -24,-25 -21,21z"/>
  <path class="fil0" d="M2336 2054l0 8c24,8 929,-2 1089,-1 63,0 125,0 188,0 78,0 128,-29 122,43 8,7 43,123 49,141 8,22 12,43 22,72 11,32 17,43 4,71 52,-8 28,-13 49,34 7,16 9,33 17,51 137,-20 276,-49 404,-62 26,-15 18,-10 54,-12 -3,-39 -5,-125 11,-161 1,-2 8,-12 10,-14 -55,18 -48,34 -145,-43 -26,-21 -42,-25 -70,-43l-137 -80c-2,-1 -4,-2 -6,-3l-25 -14c-2,-1 -4,-2 -6,-3l-159 -103 4 -32 -842 -141c-13,15 -1,5 -23,20 -34,23 -283,137 -292,139 -97,23 -224,93 -317,135z"/>
  <path class="fil3" d="M4445 1209l1095 -64 48 -3c25,91 -126,92 238,313l385 213 30 -10c51,-90 20,-163 -2,-261 -13,-57 -45,-227 -60,-260l-3 -33c-114,0 -107,-8 -222,-20 -219,-24 -154,-36 -398,-36 -3,-8 -11,-23 -13,-26 -1,-2 -3,-5 -4,-7 -15,-29 -3,-20 -52,-33 -27,-9 -13,-9 -72,3l-448 89c-104,21 -442,93 -521,97l-3 38z"/>
  <path class="fil5" d="M3848 3376l19 -8 18 -7c43,-10 33,-5 141,-6 174,-1 342,0 516,-7 0,-75 -15,-137 -19,-206 -5,-93 -4,-137 -19,-217 -25,0 -219,-2 -235,19 -141,0 -80,17 -133,-66l-34 -64c-1,-2 -2,-4 -3,-6l-24 -38c-12,-20 10,18 -7,-12 -18,-31 -29,-49 -56,-77 -17,20 -85,187 -115,245 -1,2 -2,4 -3,6l-77 186c-28,77 -56,87 -85,159 -6,15 -9,30 -18,49 -10,22 -10,13 -18,31l122 0c42,7 17,-9 28,18z"/>
  <path class="fil0" d="M10280 3213l-2028 -119c-26,40 -113,66 -160,86 -50,22 -119,45 -168,82l2334 61c11,-40 20,-64 22,-110z"/>
  <path class="fil3" d="M3593 2612c3,41 3,68 3,108 -1,46 -10,66 24,87 76,5 85,5 109,19l-46 44c-45,155 -31,456 -87,582l52 5c32,-2 178,-62 201,-81 -11,-27 14,-11 -28,-18l-122 0c8,-18 8,-10 18,-31 9,-19 12,-34 18,-49 29,-72 57,-82 85,-159l77 -186c1,-2 2,-4 3,-6 30,-58 97,-225 115,-245 4,-27 64,-198 89,-215l36 -13c25,-6 33,-7 57,-9 26,-2 89,-13 122,-23 -18,-14 30,-12 -37,-12 -128,13 -267,42 -404,62 -8,-18 -10,-35 -17,-51 -20,-47 4,-42 -49,-34 -23,48 -161,151 -218,225z"/>
  <path class="fil4" d="M4403 1075l37 130 5 3 3 -38c79,-4 416,-76 521,-97l448 -89c59,-12 45,-12 72,-3 20,-31 14,-20 -33,-94l-133 -223c-21,-38 3,-17 -31,-40l11 29c-20,18 -24,17 -52,29 -126,54 -270,128 -402,182 -50,20 -432,190 -445,211z"/>
  <path class="fil0" d="M768 1201c61,48 120,90 189,137 35,24 62,42 99,70 59,44 41,34 128,46 34,-41 26,-25 88,-42 62,-18 88,-10 109,-39l219 -77c-11,-35 -1,-25 -42,-44l-148 -67c-311,-129 -200,-139 -429,-63 -37,12 -75,23 -113,36 -70,23 -79,11 -100,43z"/>
  <path class="fil4" d="M2336 2063l0 -8c-29,-18 -8,10 -27,-35l-76 -408c-4,-22 -9,-46 -14,-70 -22,-113 -52,-56 -160,-82 -33,-8 -80,-22 -122,-34l65 596c53,2 206,52 334,40z"/>
  <path class="fil0" d="M2136 187c16,56 -48,710 -50,841 72,-5 110,-18 129,-66l144 -538c13,-51 8,-73 38,-102 -21,-38 15,-112 23,-166 -49,-3 -153,8 -212,12l-49 7c-24,9 -6,-3 -23,12z"/>
  <path class="fil5" d="M219 3369c38,-6 654,-142 708,-173l-863 -106 -64 273c45,17 172,13 219,7z"/>
  <path class="fil4" d="M4322 70c-6,46 75,286 93,344 18,56 95,308 101,344l-305 -53 -2 27 27 0 447 71 -177 -731 -67 -7c-38,-10 -75,4 -116,5z"/>
  <path class="fil0" d="M2011 1317c13,155 65,103 175,143l87 -243 -262 100z"/>
 </g>
</svg>
