<?xml version="1.0" encoding="UTF-8"?>
<!DOCTYPE svg PUBLIC "-//W3C//DTD SVG 1.1//EN" "http://www.w3.org/Graphics/SVG/1.1/DTD/svg11.dtd">
<!-- Creator: CorelDRAW X5 -->
<svg xmlns="http://www.w3.org/2000/svg" xml:space="preserve" width="138.321mm" height="89.241mm" style="shape-rendering:geometricPrecision; text-rendering:geometricPrecision; image-rendering:optimizeQuality; fill-rule:evenodd; clip-rule:evenodd"
viewBox="0 0 1093 705"
 xmlns:xlink="http://www.w3.org/1999/xlink">
 <defs>
  <style type="text/css">
   <![CDATA[
    .fil1 {fill:#9B2327}
    .fil0 {fill:#AE3224}
    .fil4 {fill:#C52828}
    .fil2 {fill:#CC5926}
    .fil3 {fill:#DA7425}
   ]]>
  </style>
 </defs>
 <g id="Warstwa_x0020_1">
  <metadata id="CorelCorpID_0Corel-Layer"/>
  <path class="fil0" d="M634 611c5,11 8,30 11,45l8 47 -21 -1c45,7 266,1 344,1 35,0 82,3 116,-1 -5,-17 -95,-194 -104,-206 -26,5 -63,19 -90,28 -29,10 -58,21 -87,30l-66 23c-8,2 -14,4 -22,6 -24,8 -63,24 -89,27z"/>
  <path class="fil1" d="M654 210l2 170c16,4 86,40 95,49 -1,0 -2,0 -2,1 -2,5 -114,32 -121,33 -41,10 -83,21 -124,32 -21,6 -39,10 -61,17l-187 47 -1 4c38,-6 183,-42 200,-41 6,0 106,56 118,62 11,6 28,14 40,22 6,7 -5,61 -4,93l24 2 21 1 -8 -47c-3,-15 -6,-34 -11,-45 -30,-20 -99,-48 -121,-66 0,0 -1,-1 -2,-1 -9,-7 -27,-19 -33,-26l54 -5c-5,6 -16,19 -19,27 19,-8 15,-20 41,-30 38,-14 239,-96 256,-92 26,6 74,40 101,43l-4 -123 -77 -1 -24 -185 -7 -4c-26,16 -119,42 -146,64z"/>
  <path class="fil2" d="M448 253c0,15 19,64 24,81 5,15 24,70 25,82 22,-4 104,-56 116,-55 7,1 31,15 38,17l4 2 -2 -170c2,-28 -7,-69 0,-93 -14,2 -4,5 -15,-5l-14 -17c0,-1 -2,-3 -2,-4 0,-1 -1,-1 -1,-2 -3,-5 -1,-5 -8,-8 -19,-8 -148,124 -165,171z"/>
  <path class="fil3" d="M634 611c26,-4 66,-19 89,-27 8,-3 14,-4 22,-6l66 -23c29,-9 58,-20 87,-30 27,-9 64,-23 90,-28l-78 -36c-26,-3 -74,-37 -101,-43 -17,-4 -218,77 -256,92 -26,10 -22,21 -41,30 3,-8 15,-20 19,-27l-54 5c6,7 24,19 33,26 0,0 1,1 2,1 22,18 91,46 121,66z"/>
  <path class="fil0" d="M49 643c-17,2 -49,59 -49,61 28,3 411,1 475,1 9,0 150,4 158,-3l-24 -2c-1,-33 11,-87 4,-93 3,13 2,3 -2,7 -18,0 -261,13 -285,15 -37,3 -84,2 -110,5 -9,1 -21,6 -31,6 -15,0 -13,-4 -34,-2 -17,2 -96,6 -102,5z"/>
  <path class="fil2" d="M255 564c-31,11 -87,13 -114,27 -15,8 -29,16 -45,24 -14,7 -37,15 -46,27 6,1 85,-3 102,-5 21,-2 19,2 34,2 10,0 22,-5 31,-6 26,-3 73,-2 110,-5 24,-2 267,-16 285,-15 4,-4 5,6 2,-7 -12,-8 -28,-16 -40,-22 -12,-6 -112,-62 -118,-62 -17,-1 -162,36 -200,41z"/>
  <path class="fil3" d="M497 417c-41,21 -85,43 -126,65 -20,11 -43,21 -63,32 -38,22 -28,9 -52,46l187 -47c22,-7 40,-11 61,-17 41,-11 83,-22 124,-32 6,-2 119,-28 121,-33 0,-1 1,-1 2,-1 -10,-9 -80,-45 -95,-49l-4 -2c-7,-3 -31,-17 -38,-17 -12,-1 -94,51 -116,55z"/>
  <path class="fil4" d="M654 117c-7,25 2,65 0,93 26,-22 120,-48 146,-64l7 4 -16 -134c-19,-4 -45,-16 -63,-15 -10,4 -67,104 -73,116z"/>
  <path class="fil3" d="M448 253c18,-47 147,-179 165,-171 7,3 5,3 8,8 0,1 1,1 1,2 0,1 2,3 2,4l14 17c11,10 1,7 15,5 6,-11 63,-112 73,-116 -8,-7 -76,15 -92,19 -50,13 -52,8 -83,39l-63 59c-8,8 -55,53 -64,59 1,15 16,66 24,75z"/>
 </g>
</svg>
